<svg xmlns="http://www.w3.org/2000/svg" width="244" height="244" viewBox="0 0 244 244">
  <defs>
    <style>
      .cls-1 {
        fill: #742121;
      }
    </style>
  </defs>
  <g id="Group_1094" data-name="Group 1094" transform="translate(2083 -2219)">
    <path id="Union_23" data-name="Union 23" class="cls-1" d="M13.755,121.048a5.788,5.788,0,0,1,.573-8.177L66.446,67.662,14.328,22.454a5.79,5.79,0,1,1,7.607-8.732L75.283,60l53.35-46.277a5.8,5.8,0,1,1,7.623,8.75L84.138,67.678l52.119,45.208a5.79,5.79,0,1,1-7.606,8.732L75.3,75.343,21.951,121.62a5.818,5.818,0,0,1-8.2-.572Z" transform="translate(-2036.292 2273.83)"/>
    <path id="Exclusion_4" data-name="Exclusion 4" class="cls-1" d="M122,244a122.9,122.9,0,0,1-24.587-2.479,121.333,121.333,0,0,1-43.624-18.357,122.355,122.355,0,0,1-44.2-53.676,121.382,121.382,0,0,1-7.109-22.9,123.19,123.19,0,0,1,0-49.175A121.333,121.333,0,0,1,20.836,53.789a122.355,122.355,0,0,1,53.677-44.2,121.382,121.382,0,0,1,22.9-7.109,123.19,123.19,0,0,1,49.175,0,121.331,121.331,0,0,1,43.624,18.357,122.355,122.355,0,0,1,44.2,53.677,121.386,121.386,0,0,1,7.109,22.9,123.189,123.189,0,0,1,0,49.175,121.332,121.332,0,0,1-18.357,43.624,122.355,122.355,0,0,1-53.676,44.2,121.388,121.388,0,0,1-22.9,7.109A122.9,122.9,0,0,1,122,244Zm0-234a112.828,112.828,0,0,0-22.572,2.275A111.387,111.387,0,0,0,59.38,29.128,112.328,112.328,0,0,0,18.8,78.4a111.434,111.434,0,0,0-6.526,21.024,113.091,113.091,0,0,0,0,45.144A111.385,111.385,0,0,0,29.128,184.62,112.328,112.328,0,0,0,78.4,225.2a111.441,111.441,0,0,0,21.024,6.526,113.093,113.093,0,0,0,45.144,0,111.385,111.385,0,0,0,40.048-16.852A112.328,112.328,0,0,0,225.2,165.6a111.443,111.443,0,0,0,6.526-21.023,113.093,113.093,0,0,0,0-45.144A111.387,111.387,0,0,0,214.872,59.38,112.328,112.328,0,0,0,165.6,18.8a111.437,111.437,0,0,0-21.023-6.526A112.825,112.825,0,0,0,122,10Z" transform="translate(-2083 2219)"/>
  </g>
</svg>
