<svg xmlns="http://www.w3.org/2000/svg" width="128.557" height="74.022" viewBox="0 0 128.557 74.022">
  <g id="ap-logo" transform="translate(0 0)">
    <g id="Group_125" data-name="Group 125" transform="translate(-295.499 -57.989)">
      <path id="Path_2256" data-name="Path 2256" d="M313.474,103.026l-1.01,3.057h-1.3l3.317-9.719h1.5l3.316,9.719h-1.341l-1.038-3.057Zm3.2-.98-.967-2.8c-.215-.635-.36-1.211-.5-1.773h-.03c-.144.562-.288,1.168-.49,1.758l-.952,2.813Z" fill="#8e8e8f"/>
      <path id="Path_2257" data-name="Path 2257" d="M321.575,96.364v5.768c0,2.163.966,3.086,2.263,3.086,1.428,0,2.366-.951,2.366-3.086V96.364h1.268v5.682c0,2.984-1.572,4.195-3.677,4.195-1.99,0-3.49-1.124-3.49-4.152V96.364Z" fill="#8e8e8f"/>
      <path id="Path_2258" data-name="Path 2258" d="M329.488,104.555a4.254,4.254,0,0,0,2.234.634c1.284,0,2.033-.677,2.033-1.659,0-.893-.518-1.427-1.831-1.917-1.586-.577-2.566-1.413-2.566-2.768,0-1.515,1.254-2.639,3.143-2.639a4.339,4.339,0,0,1,2.134.476l-.345,1.023a3.609,3.609,0,0,0-1.833-.461c-1.326,0-1.831.793-1.831,1.456,0,.908.592,1.356,1.933,1.875,1.644.634,2.466,1.427,2.466,2.855,0,1.5-1.1,2.811-3.389,2.811a5.018,5.018,0,0,1-2.48-.634Z" fill="#8e8e8f"/>
      <path id="Path_2259" data-name="Path 2259" d="M336.593,104.555a4.258,4.258,0,0,0,2.235.634c1.284,0,2.033-.677,2.033-1.659,0-.893-.519-1.427-1.831-1.917-1.586-.577-2.567-1.413-2.567-2.768,0-1.515,1.254-2.639,3.144-2.639a4.342,4.342,0,0,1,2.134.476l-.346,1.023a3.6,3.6,0,0,0-1.832-.461c-1.326,0-1.831.793-1.831,1.456,0,.908.592,1.356,1.933,1.875,1.643.634,2.465,1.427,2.465,2.855,0,1.5-1.1,2.811-3.388,2.811a5.022,5.022,0,0,1-2.481-.634Z" fill="#8e8e8f"/>
      <path id="Path_2260" data-name="Path 2260" d="M345.113,96.364v9.719h-1.27V96.364Z" fill="#8e8e8f"/>
      <path id="Path_2261" data-name="Path 2261" d="M352.322,101.526h-3.764v3.5h4.21v1.053h-5.479V96.364h5.263v1.053h-3.994v3.071h3.764Z" fill="#8e8e8f"/>
      <path id="Path_2262" data-name="Path 2262" d="M357.45,96.479a14.638,14.638,0,0,1,2.408-.187,3.988,3.988,0,0,1,2.725.808,2.662,2.662,0,0,1,.851,2.033,2.861,2.861,0,0,1-.75,2.076,4.049,4.049,0,0,1-2.971,1.067,4.254,4.254,0,0,1-1.008-.087v3.894H357.45Zm1.255,4.687a4.206,4.206,0,0,0,1.038.1c1.513,0,2.436-.75,2.436-2.062s-.923-1.918-2.292-1.918a5.225,5.225,0,0,0-1.182.1Z" fill="#8e8e8f"/>
      <path id="Path_2263" data-name="Path 2263" d="M365.119,96.494a14.628,14.628,0,0,1,2.408-.2,4.019,4.019,0,0,1,2.811.793,2.479,2.479,0,0,1,.765,1.86,2.553,2.553,0,0,1-1.817,2.466v.043a2.44,2.44,0,0,1,1.413,1.961,15.545,15.545,0,0,0,.75,2.668h-1.3a12.188,12.188,0,0,1-.634-2.321c-.289-1.341-.822-1.846-1.961-1.89h-1.182v4.211h-1.255Zm1.255,4.427h1.283c1.341,0,2.191-.736,2.191-1.846,0-1.255-.908-1.8-2.234-1.8a5.4,5.4,0,0,0-1.24.1Z" fill="#8e8e8f"/>
      <path id="Path_2264" data-name="Path 2264" d="M377.892,101.526h-3.764v3.5h4.21v1.053h-5.479V96.364h5.264v1.053h-3.995v3.071h3.764Z" fill="#8e8e8f"/>
      <path id="Path_2265" data-name="Path 2265" d="M388.155,101.814c-.073-1.355-.158-3-.158-4.195h-.03c-.345,1.124-.735,2.35-1.225,3.691l-1.716,4.715h-.952l-1.586-4.629c-.461-1.383-.836-2.623-1.111-3.777h-.028c-.029,1.211-.1,2.826-.187,4.3l-.26,4.167h-1.2l.677-9.719h1.6l1.658,4.7c.4,1.2.722,2.264.981,3.273h.029c.26-.981.605-2.047,1.038-3.273l1.73-4.7h1.6l.605,9.719h-1.24Z" fill="#8e8e8f"/>
      <path id="Path_2266" data-name="Path 2266" d="M392.808,96.364v9.719h-1.269V96.364Z" fill="#8e8e8f"/>
      <path id="Path_2267" data-name="Path 2267" d="M400.017,101.526h-3.764v3.5h4.21v1.053h-5.479V96.364h5.264v1.053h-3.995v3.071h3.764Z" fill="#8e8e8f"/>
      <path id="Path_2268" data-name="Path 2268" d="M402.09,96.494a14.651,14.651,0,0,1,2.409-.2,4.023,4.023,0,0,1,2.811.793,2.479,2.479,0,0,1,.765,1.86,2.552,2.552,0,0,1-1.818,2.466v.043a2.434,2.434,0,0,1,1.413,1.961,15.642,15.642,0,0,0,.75,2.668h-1.3a12.107,12.107,0,0,1-.634-2.321c-.289-1.341-.823-1.846-1.961-1.89h-1.183v4.211H402.09Zm1.255,4.427h1.283c1.341,0,2.192-.736,2.192-1.846,0-1.255-.908-1.8-2.235-1.8a5.417,5.417,0,0,0-1.24.1Z" fill="#8e8e8f"/>
    </g>
    <g id="Group_132" data-name="Group 132" transform="translate(-295.499 -57.989)">
      <g id="Group_126" data-name="Group 126">
        <path id="Path_2269" data-name="Path 2269" d="M315.379,110.232l38-.661V110.9Z" fill="#8e8e8f"/>
        <path id="Path_2270" data-name="Path 2270" d="M404.174,110.232l-38,.664v-1.325Z" fill="#8e8e8f"/>
      </g>
      <g id="Group_127" data-name="Group 127">
        <path id="Path_2271" data-name="Path 2271" d="M368.182,123.239a2.877,2.877,0,0,0-1.482.438,5.438,5.438,0,0,1-1.869.36,2.994,2.994,0,0,1-2.065-.72,8.7,8.7,0,0,0-.664-1.614,7.768,7.768,0,0,0-.458-.724c-.033-.048-.066-.1-.1-.142a7.1,7.1,0,0,0-1.755-2.5l-.014-.013-.015.013a7.061,7.061,0,0,0-1.754,2.494L357.9,121a7.4,7.4,0,0,0-.446.708,8.6,8.6,0,0,0-.664,1.612,2.992,2.992,0,0,1-2.066.722,5.42,5.42,0,0,1-1.865-.359,2.891,2.891,0,0,0-1.486-.439,2.426,2.426,0,0,0-1.408.441l-.016.012.011.017a3.648,3.648,0,0,0,3.053,1.919,5.938,5.938,0,0,0,3.628-1.685,5.728,5.728,0,0,0-.106,1.052,10.353,10.353,0,0,0,.08,1.11,4.384,4.384,0,0,1-.2,2.485,2.216,2.216,0,0,1-2.085,1.2,3.073,3.073,0,0,1-.583-.056l-.005.023v-.024l-.009.044h.005a1.3,1.3,0,0,1,.437.246,1.475,1.475,0,0,0,.547.3,1.988,1.988,0,0,0,.371.035,3.817,3.817,0,0,0,2.6-1.321c1.051-1.221.965-2.824.786-4.362l-.009-.079a7.39,7.39,0,0,0,1.109,1.394c-.3,1.71-.8,4.62-.8,5.013a1.007,1.007,0,1,0,2.014,0c0-.446-.662-4.226-.8-5.013a7.34,7.34,0,0,0,1.109-1.4c0,.027-.007.053-.009.081-.172,1.469-.268,3.138.787,4.362a3.8,3.8,0,0,0,2.6,1.321,2,2,0,0,0,.372-.035,1.471,1.471,0,0,0,.548-.3,1.278,1.278,0,0,1,.435-.246l0-.02h0l.006.02h0l-.009-.044h-.006a3.057,3.057,0,0,1-.583.056,2.216,2.216,0,0,1-2.084-1.2,4.376,4.376,0,0,1-.2-2.488,10.585,10.585,0,0,0,.081-1.107,5.6,5.6,0,0,0-.107-1.052,5.943,5.943,0,0,0,3.627,1.685,3.638,3.638,0,0,0,3.051-1.919l.012-.017-.016-.012A2.417,2.417,0,0,0,368.182,123.239Zm-1.158,1.08.042-.024a2.185,2.185,0,0,1,1.116-.337,1.661,1.661,0,0,1,.295.025,2.566,2.566,0,0,1-1.935.926,3.169,3.169,0,0,1-1.053-.193,6.286,6.286,0,0,0,1.492-.376Zm-15.654-.361a2.193,2.193,0,0,1,1.117.337l.043.026.043.019a6.137,6.137,0,0,0,1.49.376,3.216,3.216,0,0,1-1.053.193,2.562,2.562,0,0,1-1.933-.926A1.623,1.623,0,0,1,351.37,123.958Zm5.35,5.207a2.681,2.681,0,0,0,.19-.325,4.839,4.839,0,0,0,.259-2.79v-.012a9.647,9.647,0,0,1-.076-1.043,6.223,6.223,0,0,1,.624-2.565c.019.737.1,1.466.191,2.237l.008.074c.166,1.414.251,2.881-.656,3.931A3.352,3.352,0,0,1,356.72,129.165Zm3.057-4.26a3.605,3.605,0,0,1,0-5.3,4.516,4.516,0,0,1,1.155,2.652A4.4,4.4,0,0,1,359.777,124.9Zm3.056,4.262a3.4,3.4,0,0,1-.54-.5c-.9-1.049-.82-2.521-.655-3.938l.008-.069c.089-.769.172-1.5.19-2.235a6.265,6.265,0,0,1,.625,2.565,10.188,10.188,0,0,1-.076,1.043l0,.011a4.847,4.847,0,0,0,.26,2.79A2.884,2.884,0,0,0,362.833,129.167Zm2.979.571.008.023h0l0-.021Z" fill="#8e8e8f"/>
        <path id="Path_2272" data-name="Path 2272" d="M376.446,118.712a9.495,9.495,0,0,0-1.946-3.051,10.483,10.483,0,0,0-3.926-2.54,8.812,8.812,0,0,0-2.789-.973,6.359,6.359,0,0,0-1.041-.082c-2.153,0-5.086.973-6.493,3.107v-2.715a1.486,1.486,0,1,0-.95,0v2.715c-1.4-2.134-4.34-3.107-6.492-3.107a6.337,6.337,0,0,0-1.04.082,8.8,8.8,0,0,0-2.788.971,10.5,10.5,0,0,0-3.929,2.542,9.473,9.473,0,0,0-1.944,3.051,9.834,9.834,0,0,0-.721,3.638v.015l.016.005a2.021,2.021,0,0,0,.619.1c1.042,0,2.113-.784,3.278-2.4a9.244,9.244,0,0,0,1.2-2.693,9.9,9.9,0,0,1,1.054-2.47,12.125,12.125,0,0,1,1.172-1.5,8.246,8.246,0,0,1,2.138-.674,5.655,5.655,0,0,1,.911-.07h.054a5.088,5.088,0,0,0-2.073,6.222l.043-.013a5.37,5.37,0,0,1,.464-.734,7.336,7.336,0,0,0,.653-1.051,9.442,9.442,0,0,0,.318-1.683,5.1,5.1,0,0,1,.892-2.732c2.487.121,5.4,1.479,6.173,3.846v1.127c-1.4.308-1.879,1.529-2.339,2.71l-.005.011a6.827,6.827,0,0,1-.781,1.6,2.11,2.11,0,0,1-1.591.89,1.927,1.927,0,0,1-1.27-.419,1.545,1.545,0,0,1-.174-.573,2.3,2.3,0,0,1,.219-.978l.029-.075a1.657,1.657,0,0,0,.162-.687.714.714,0,0,0-.645-.715.378.378,0,0,0-.048,0c-.4,0-.757.457-.807,1.04a2.579,2.579,0,0,0,.218,1.373,2.262,2.262,0,0,0,.2.319,1.612,1.612,0,0,0,.25.263,2.4,2.4,0,0,0,1.782.839c.034,0,.068,0,.1,0a2.491,2.491,0,0,0,1.879-1.045,7.236,7.236,0,0,0,.837-1.705c.43-1.108.835-2.154,1.982-2.454l.95,0v0c1.147.3,1.554,1.346,1.984,2.455a7.215,7.215,0,0,0,.836,1.7,2.487,2.487,0,0,0,1.877,1.046c.034,0,.067,0,.1,0a2.4,2.4,0,0,0,1.78-.837,1.525,1.525,0,0,0,.253-.265,2.1,2.1,0,0,0,.2-.319,2.589,2.589,0,0,0,.216-1.373c-.05-.583-.4-1.04-.807-1.04a.339.339,0,0,0-.045,0,.72.72,0,0,0-.646.715,1.657,1.657,0,0,0,.162.687l.03.075a2.343,2.343,0,0,1,.216.978,1.489,1.489,0,0,1-.173.573,1.93,1.93,0,0,1-1.272.419,2.113,2.113,0,0,1-1.589-.89,6.881,6.881,0,0,1-.787-1.616c-.461-1.181-.936-2.4-2.338-2.71v-1.127c.772-2.367,3.688-3.725,6.174-3.846a5.094,5.094,0,0,1,.891,2.732,9.353,9.353,0,0,0,.319,1.683,7.243,7.243,0,0,0,.653,1.051,5.4,5.4,0,0,1,.463.733l.043.014a5.088,5.088,0,0,0-2.071-6.222h.054a5.652,5.652,0,0,1,.91.07,8.208,8.208,0,0,1,2.136.674,12.315,12.315,0,0,1,1.174,1.5,9.941,9.941,0,0,1,1.053,2.469,9.327,9.327,0,0,0,1.2,2.694c1.166,1.614,2.24,2.4,3.279,2.4a2.032,2.032,0,0,0,.62-.1l.016-.005v-.015A9.868,9.868,0,0,0,376.446,118.712Zm-23.686,3.177a1.844,1.844,0,0,1-.151-.246,2.165,2.165,0,0,1-.176-1.163c.035-.408.252-.692.425-.692l.014,0a.34.34,0,0,1,.3.352,1.4,1.4,0,0,1-.135.531l-.031.075a2.669,2.669,0,0,0-.244,1.139Zm13.933-2.1c.174,0,.392.3.426.692a2.158,2.158,0,0,1-.175,1.163,1.628,1.628,0,0,1-.151.245h0a2.661,2.661,0,0,0-.243-1.14l-.031-.074a1.445,1.445,0,0,1-.137-.531.34.34,0,0,1,.3-.353Z" fill="#8e8e8f"/>
      </g>
      <g id="Group_129" data-name="Group 129">
        <g id="Group_128" data-name="Group 128">
          <path id="Path_2273" data-name="Path 2273" d="M295.5,91.378l55.017-.725V92.1Z" fill="#8e8e8f"/>
          <path id="Path_2274" data-name="Path 2274" d="M424.055,91.378l-55.02.726v-1.45Z" fill="#8e8e8f"/>
        </g>
        <path id="Path_2275" data-name="Path 2275" d="M361.746,88.948l-1.647,3.46-1.649-3.46,1.649-3.462Z" fill="#8e8e8f"/>
      </g>
      <g id="Group_131" data-name="Group 131">
        <g id="Group_130" data-name="Group 130">
          <path id="Path_2276" data-name="Path 2276" d="M359.03,66.7h1.493a4.6,4.6,0,0,0,1.238-5.8,14.546,14.546,0,0,0-1.338-1.836,11.394,11.394,0,0,1-.646-1.074,11.218,11.218,0,0,1-.649,1.074,14.948,14.948,0,0,0-1.337,1.836A4.6,4.6,0,0,0,359.03,66.7Z" fill="#8e8e8f"/>
          <path id="Path_2277" data-name="Path 2277" d="M365.855,66.529a.933.933,0,0,0-.92-.509,2.689,2.689,0,0,0-2.575,2.11,4.725,4.725,0,0,0-5.184-.058,2.668,2.668,0,0,0-2.558-2.052.939.939,0,0,0-.922.509.894.894,0,0,0,.271,1.11c.433.249.971-.024,1.436.051a1.655,1.655,0,0,1,1.083.7l.052.127a6.005,6.005,0,0,0-.911.874s3.818-.125,3.818,9.417l.332.346.332-.346c0-9.542,3.817-9.417,3.817-9.417a9.5,9.5,0,0,0-.934-.822l.076-.179a1.651,1.651,0,0,1,1.081-.7c.464-.075,1,.2,1.436-.051A.9.9,0,0,0,365.855,66.529Z" fill="#8e8e8f"/>
        </g>
        <path id="Path_2278" data-name="Path 2278" d="M415.564,73.177a5.617,5.617,0,0,0-1.38-3.113,2.857,2.857,0,0,0-1.437-.99.93.93,0,0,0-.258-.036.667.667,0,0,0-.66.432c-.189.5.249,1.022.62,1.238a3.367,3.367,0,0,0,.988.3,3.441,3.441,0,0,1,1.086.342,4.2,4.2,0,0,1-.4,4.707,5.9,5.9,0,0,1-4.462,1.735,7.2,7.2,0,0,1-1.448-.143,10.354,10.354,0,0,0-5.169-6.692,17.4,17.4,0,0,0-8.552-2.231,15.63,15.63,0,0,0-2.275.162,3.006,3.006,0,0,0,.661-.691,4.4,4.4,0,0,0,.51-2.636c0-.132,0-.264,0-.4v-.028l-.027.006c-.017,0-1.7.41-1.772,2.91a2.314,2.314,0,0,1-.356,1.013,11.978,11.978,0,0,0-1.622.48,19.281,19.281,0,0,0-7.593,5.162c-.875.958-1.683,1.986-2.465,2.979a41.151,41.151,0,0,1-3.086,3.633,14.866,14.866,0,0,1-5.806,3.722,9.026,9.026,0,0,0,3.687-4.077,10.838,10.838,0,0,0,.713-2.092,1.314,1.314,0,0,0,.561.77.869.869,0,0,0,.226.094.945.945,0,0,0,.255.034,1.819,1.819,0,0,0,1.565-1.5.386.386,0,0,0-.169-.39.378.378,0,0,0-.1-.039.308.308,0,0,0-.068-.007.616.616,0,0,0-.5.413,1.093,1.093,0,0,0-.05.4.887.887,0,0,1-.073.443.668.668,0,0,1-.577.294.643.643,0,0,1-.178-.024,1.052,1.052,0,0,1-.553-1.2,3.551,3.551,0,0,1,.8-1.462,6.885,6.885,0,0,0,.594-.865,2.322,2.322,0,0,0,.192-2.275,1.2,1.2,0,0,0-.87-.566,1.163,1.163,0,0,0-.145-.009,1.1,1.1,0,0,0-.778.325,2.246,2.246,0,0,0-.5.82,1.661,1.661,0,0,1,.334-.976,1.1,1.1,0,0,1,.843-.426,2.041,2.041,0,0,1,1.642,1.439v0l.022-.008h0v0l.021-.008a2.523,2.523,0,0,1-.094-.614,2.094,2.094,0,0,0-.17-.827,1.849,1.849,0,0,0-1.622-1.17,1.989,1.989,0,0,0-1.494.787,1.9,1.9,0,0,0-.413.858,7.45,7.45,0,0,0-2.389-1.21,2.324,2.324,0,0,1-1.276-.744,1.089,1.089,0,0,1,.107-1.249,3.212,3.212,0,0,1,.712-.11,2.45,2.45,0,0,0,.763-.136c.3-.13.669-.484.573-.868a.487.487,0,0,0-.228-.311.67.67,0,0,0-.423-.07,2.793,2.793,0,0,0-1.638,1.124,2.085,2.085,0,0,0-.4.868,1.351,1.351,0,0,0,.207.971,1.766,1.766,0,0,0,.594.536,4.412,4.412,0,0,0,.886.362,6.793,6.793,0,0,1,2.485,1.322,1.865,1.865,0,0,0,.086.421,5.039,5.039,0,0,0-2.318-1.279,8.472,8.472,0,0,0-1.67-.445,3.727,3.727,0,0,1-.312-.383,2.4,2.4,0,0,1-.47-1.026,2.105,2.105,0,0,1,.162-.948,2.876,2.876,0,0,0,.175-.768,2.217,2.217,0,0,0-.525-1.678l-.016-.014-.016.014a3.6,3.6,0,0,0-.967,2.551,3.131,3.131,0,0,0,1.558,2.205,5.116,5.116,0,0,0-1.212.042c-.2.035-.424.1-.668.173a4.89,4.89,0,0,1-1.3.261,1.063,1.063,0,0,1-1.009-.545,2.257,2.257,0,0,1-.25-.984h-.022l.022,0h-.045v0a.692.692,0,0,1-.041.191.853.853,0,0,0-.042.175,2.133,2.133,0,0,0,.1.882,2.362,2.362,0,0,0,1.52,1.418,2.841,2.841,0,0,0,.769.1,6.6,6.6,0,0,0,1.482-.218l.043-.009a4.179,4.179,0,0,0-1.027,3.1,3.318,3.318,0,0,0,1.547,2.819,2.385,2.385,0,0,0,.742.282,1.428,1.428,0,0,0,.267.023,4.386,4.386,0,0,0,.514-.041,4.732,4.732,0,0,1,.525-.041,1.06,1.06,0,0,1,.546.12.767.767,0,0,1,.115.085,2.388,2.388,0,0,1,.513.662l.027.049.015-.053a2.4,2.4,0,0,0-.046-1.726,1.861,1.861,0,0,0-.753-.8,2.4,2.4,0,0,0-.69-.262c-.13-.028-.259-.053-.387-.079a4.541,4.541,0,0,1-1.384-.427,1.868,1.868,0,0,1-.809-.969l-.024-.062a2.126,2.126,0,0,0,1.3.739c.056.007.181.008.339.01.49,0,1.4.015,1.453.257l.044-.009v0a1.949,1.949,0,0,0-1.3-1.394,2.317,2.317,0,0,0-.76-.1c-.446-.009-.869-.017-1.138-.4a.923.923,0,0,1-.111-.227,3.974,3.974,0,0,1,1.218-1.749c.183-.047.348-.089.515-.121l.074-.015a10.345,10.345,0,0,1,1.534-.232h.012a4.389,4.389,0,0,1,2.938,2.729,4.74,4.74,0,0,1,.176.54,6.505,6.505,0,0,1,.153.7,10.357,10.357,0,0,1-.929,3.607,8.5,8.5,0,0,1-5.658,4.779,13.424,13.424,0,0,1-1.9.174,3.85,3.85,0,0,1-1.3-.187,5.183,5.183,0,0,1-3.451-3.239,4.348,4.348,0,0,1-.117-2.121,2.7,2.7,0,0,1,2.623-2.271,1.749,1.749,0,0,1,.287.02l.049,0a2.24,2.24,0,0,1,2.237,2.24,2.21,2.21,0,0,1-.6,1.715,1.82,1.82,0,0,1-1.142.383,1.856,1.856,0,0,1-1.127-.368,1.511,1.511,0,0,1-.132-2.29,1.006,1.006,0,0,1,.515-.235,1.071,1.071,0,0,1,.175-.015.614.614,0,0,1,.357.1.672.672,0,0,1,.212.32c.018.042.037.086.057.126a.774.774,0,0,0,.694.414.593.593,0,0,0,.279-.067.416.416,0,0,0,.205-.572,2,2,0,0,0-1.765-.895,1.893,1.893,0,0,0-.423.045,1.641,1.641,0,0,0-.689.34,2.082,2.082,0,0,0-.654,1.753,2.044,2.044,0,0,0,.814,1.442,2.444,2.444,0,0,0,1.485.492,2.4,2.4,0,0,0,1.506-.514,2.745,2.745,0,0,0,.821-2.171,2.83,2.83,0,0,0-2.8-2.824,2.363,2.363,0,0,0-.384-.03,3.278,3.278,0,0,0-3.165,2.712,4.885,4.885,0,0,0,.1,2.351,5.668,5.668,0,0,0,3.825,3.708,3.294,3.294,0,0,0,.591.153,5.577,5.577,0,0,0,1,.263,9.7,9.7,0,0,0,1.546.121,11,11,0,0,0,2.272-.241,15.439,15.439,0,0,0,4.6-1.809,20.883,20.883,0,0,0,2.345-1.578,25.021,25.021,0,0,0,2.281-1.982c.473-.461.935-.926,1.424-1.419,1.008-1.017,2.05-2.068,3.187-3.047.257-.223.54-.452.915-.743a12.4,12.4,0,0,1,1.386.249c.218.05.438.117.651.182a4.908,4.908,0,0,0,1.4.282,2.141,2.141,0,0,0,.591-.081,1.877,1.877,0,0,0,.483-.307,1.346,1.346,0,0,1,.4-.25h0l0-.023h0l0,.023,0-.045h0c-.044,0-.09.006-.134.006a1.592,1.592,0,0,1-1.128-.472l-.009-.006a4.9,4.9,0,0,0-2.552-.341c.24-.158.468-.3.7-.44.148-.093.3-.178.457-.261.093-.051.186-.1.277-.153.047-.022.1-.047.147-.072.079-.039.16-.081.233-.112l.008,0c.12-.052.243-.107.372-.156a8.026,8.026,0,0,1,1.613-.446,8.664,8.664,0,0,1,3.38.083,8.322,8.322,0,0,1,1.616.546,7.547,7.547,0,0,1,1.454.884,6.818,6.818,0,0,1,1.192,1.2,6.244,6.244,0,0,1,.81,1.475,8.843,8.843,0,0,1,.467,1.64,8.555,8.555,0,0,1,.124,1.691,7.2,7.2,0,0,1-.782,3.207,5.974,5.974,0,0,1-1.565,1.878,3.8,3.8,0,0,1-.429-1.433,5.214,5.214,0,0,1,.608-.779,3.638,3.638,0,0,0,.667-.917,1.248,1.248,0,0,0-.27-1.49.711.711,0,0,0-.384-.115.873.873,0,0,0-.679.373,3.827,3.827,0,0,0-.573,2.6,5.785,5.785,0,0,0,.575,2.108c-.018.013-.038.025-.056.037l-.085.056a7.093,7.093,0,0,1-.7.383c-.1.051-.208.1-.3.141l-.053.022-.061.026c-.043.017-.086.035-.124.049s-.06.019-.089.029-.058.02-.088.028a6.656,6.656,0,0,1-1.529.255,11.14,11.14,0,0,1-1.547-.015c-.129-.014-.24-.03-.359-.051s-.242-.047-.358-.08a4.5,4.5,0,0,1-.688-.235,4.672,4.672,0,0,1-1.216-.731,3.776,3.776,0,0,1-.882-1.026,2.9,2.9,0,0,1-.36-1.219,3.263,3.263,0,0,1,.161-1.233,3.064,3.064,0,0,1,1.462-1.752,2.808,2.808,0,0,1,1.3-.325,2.46,2.46,0,0,1,.723.105,2.229,2.229,0,0,1,.814.435,1.91,1.91,0,0,1,.513.67,1.965,1.965,0,0,1,.064,1.467,1.61,1.61,0,0,1-.718.9,1.407,1.407,0,0,1-.825.165,2.09,2.09,0,0,1-.425-.073c-.2-.058-.31-.117-.327-.173-.061-.2-.116-.418-.169-.626-.041-.159-.078-.309-.118-.444a.74.74,0,0,0-.613-.576.444.444,0,0,0-.05,0,.46.46,0,0,0-.389.5,2.133,2.133,0,0,0,.975,1.635,2.4,2.4,0,0,0,1.235.343l.126,0a1.952,1.952,0,0,0,.864-.243,2.2,2.2,0,0,0,.989-1.219,2.575,2.575,0,0,0-.085-1.9,2.515,2.515,0,0,0-.669-.876,2.918,2.918,0,0,0-1.027-.551,3.05,3.05,0,0,0-.885-.128,3.442,3.442,0,0,0-1.578.39,3.672,3.672,0,0,0-1.756,2.082,3.609,3.609,0,0,0,.237,2.947,4.4,4.4,0,0,0,1.015,1.195,5.36,5.36,0,0,0,1.367.831,5.285,5.285,0,0,0,.771.265c.14.039.282.068.4.091s.267.044.419.062c.319.028.635.042.965.042.218,0,.445-.007.675-.019a7.07,7.07,0,0,0,1.677-.276c.053-.014.106-.033.157-.05l.059-.02c.04-.013.076-.028.112-.043s.055-.022.086-.033l.1-.045c.1-.044.2-.085.3-.133a7.963,7.963,0,0,0,.762-.417c.032-.019.063-.04.094-.061l.05-.033a4.745,4.745,0,0,0,1,.984,7.115,7.115,0,0,0,3.962,1.193,5.936,5.936,0,0,0,1.676-.227,7.444,7.444,0,0,0,4.1-3.548,11.342,11.342,0,0,0,1.069-7.054,7.378,7.378,0,0,0,1.363.126,6.706,6.706,0,0,0,4.869-1.952A4.194,4.194,0,0,0,415.564,73.177Zm-3.26-3.528c.013-.033.04-.1.185-.1a.459.459,0,0,1,.122.016,2.9,2.9,0,0,1,1.317,1.032c-.1-.025-.21-.047-.311-.069l-.076-.015a3.016,3.016,0,0,1-.835-.243C412.471,70.133,412.24,69.82,412.3,69.649ZM399.681,80.961a9.164,9.164,0,0,0-.126-1.826,9.581,9.581,0,0,0-.5-1.774,7.034,7.034,0,0,0-.9-1.641,7.3,7.3,0,0,0-1.316-1.332,8.267,8.267,0,0,0-1.587-.973,8.963,8.963,0,0,0-1.757-.6,9.421,9.421,0,0,0-3.656-.1,8.622,8.622,0,0,0-1.754.487c-.129.049-.259.107-.384.163l-.039.018c-.092.042-.17.081-.252.122l-.151.076c-.084.047-.169.094-.253.139-.172.093-.35.19-.517.295a19.725,19.725,0,0,0-2.512,1.816c-.053.032-.081.052-.081.052l.007.009-.021.016c-.061.052-.122.1-.18.154-1.163,1-2.208,2.064-3.219,3.088-.488.493-.947.96-1.416,1.417a24.07,24.07,0,0,1-4.462,3.509,17.873,17.873,0,0,1-2.245,1.144,13.464,13.464,0,0,1-2.152.709,10.924,10.924,0,0,1-2.138.293c.162-.022.316-.044.46-.066l.034,0a14.793,14.793,0,0,0,8.313-4.416,41.4,41.4,0,0,0,3.092-3.635l.037-.046c.774-.985,1.572-2,2.432-2.943A16.9,16.9,0,0,1,387.2,72.02a14.589,14.589,0,0,1,5.844-1.254,13.981,13.981,0,0,1,5.8,1.285,15.844,15.844,0,0,1,3.824,2.8l.014.011a13.294,13.294,0,0,0,4.871,3.23l.07.019.09.025c0,.02.006.04.01.059s.011.058.015.087a10.942,10.942,0,0,1-.989,6.761,6.836,6.836,0,0,1-3.755,3.272,5.4,5.4,0,0,1-1.521.208,6.5,6.5,0,0,1-3.616-1.091,3.837,3.837,0,0,1-.849-.849,6.654,6.654,0,0,0,1.8-2.121A7.875,7.875,0,0,0,399.681,80.961Zm3.39-6.534a16.292,16.292,0,0,0-3.986-2.909,14.566,14.566,0,0,0-6.044-1.338,15.164,15.164,0,0,0-6.079,1.305l-.27.12a19.362,19.362,0,0,1,3.12-1.507,13.409,13.409,0,0,1,4.686-.788,16.772,16.772,0,0,1,8.249,2.157,9.888,9.888,0,0,1,4.831,6.018A13.063,13.063,0,0,1,403.071,74.427ZM375.3,77.171c-.007-.045-.015-.088-.024-.133l-.005-.024a3.507,3.507,0,0,0-.192-.837l0-.008a4.508,4.508,0,0,1-.175-.658,2.513,2.513,0,0,1,.563-1.921.718.718,0,0,1,.51-.214.706.706,0,0,1,.091.006.8.8,0,0,1,.583.382,1.963,1.963,0,0,1-.2,1.885,6.329,6.329,0,0,1-.537.784l-.024.031a7.019,7.019,0,0,0-.589.853c.005-.064.006-.1.006-.113Zm1.72,1.762c0-.037,0-.072.005-.107l0-.057a1.45,1.45,0,0,1,.054-.421c.045-.122.162-.237.24-.237h.015l.021.006c.032.02.04.08.036.124A1.39,1.39,0,0,1,377.02,78.933Zm-5.309-10.062a.245.245,0,0,1,.116.024.109.109,0,0,1,.046.069c.032.128-.166.335-.35.414a2.139,2.139,0,0,1-.607.1l-.079.006c-.076.006-.154.012-.232.021a2.168,2.168,0,0,1,1.055-.634Zm-3,9.144c.071.05.142.1.213.137a5.171,5.171,0,0,0,1.6.512c.124.024.252.051.379.078a1.656,1.656,0,0,1,.48.179,1.113,1.113,0,0,1,.363.328,2.184,2.184,0,0,0-.411-.036,5.128,5.128,0,0,0-.609.047,4.1,4.1,0,0,1-.434.037.66.66,0,0,1-.12-.009,1.71,1.71,0,0,1-.514-.2A2.492,2.492,0,0,1,368.712,78.015ZM365.879,80a.271.271,0,0,1-.125.028.558.558,0,0,1-.362-.155,1.423,1.423,0,0,1-.2-.407c-.029-.077-.056-.144-.082-.2a1.572,1.572,0,0,1,.835.6C365.96,79.91,365.968,79.958,365.879,80Zm24.206,4.288a.856.856,0,0,1-.11-.088,1.919,1.919,0,0,1-.559-1.115c0-.058.012-.155.091-.165h.013c.107,0,.249.184.291.335.03.106.062.224.094.35l.045.175C389.993,83.95,390.037,84.124,390.085,84.29Zm-.1-8.388h0l0-.018Z" fill="#8e8e8f"/>
        <path id="Path_2279" data-name="Path 2279" d="M358.568,80.073a3.28,3.28,0,0,0-3.166-2.712,2.27,2.27,0,0,0-.38.03,2.831,2.831,0,0,0-2.8,2.824,2.748,2.748,0,0,0,.821,2.171,2.4,2.4,0,0,0,1.505.514,2.445,2.445,0,0,0,1.486-.492,2.054,2.054,0,0,0,.814-1.442,2.086,2.086,0,0,0-.654-1.753,1.655,1.655,0,0,0-.691-.34,1.877,1.877,0,0,0-.422-.045,2,2,0,0,0-1.764.9.415.415,0,0,0,.2.571.6.6,0,0,0,.281.067.775.775,0,0,0,.694-.414c.019-.039.037-.081.053-.121a.685.685,0,0,1,.216-.325.614.614,0,0,1,.357-.1,1.056,1.056,0,0,1,.173.015,1,1,0,0,1,.516.235,1.507,1.507,0,0,1-.134,2.29,1.845,1.845,0,0,1-1.126.368,1.811,1.811,0,0,1-1.139-.383,2.207,2.207,0,0,1-.6-1.715,2.24,2.24,0,0,1,2.238-2.24l.049,0a1.726,1.726,0,0,1,.285-.02A2.7,2.7,0,0,1,358,80.222c.037.151.832,3.728-3.567,5.361a3.832,3.832,0,0,1-1.3.187,13.517,13.517,0,0,1-1.9-.173,8.509,8.509,0,0,1-5.661-4.78,10.3,10.3,0,0,1-.928-3.6,6.639,6.639,0,0,1,.15-.7,5.151,5.151,0,0,1,.176-.54,4.392,4.392,0,0,1,2.94-2.729h.012a10.346,10.346,0,0,1,1.534.232l.075.015c.172.034.346.078.512.121a3.958,3.958,0,0,1,1.217,1.749.849.849,0,0,1-.108.226c-.271.382-.693.39-1.14.4a2.3,2.3,0,0,0-.758.1,1.952,1.952,0,0,0-1.3,1.394v0l.044.009c.049-.242.963-.252,1.454-.257.158,0,.283,0,.34-.01a2.118,2.118,0,0,0,1.3-.742c-.008.026-.016.047-.023.065a1.879,1.879,0,0,1-.81.969,4.538,4.538,0,0,1-1.385.427c-.127.026-.256.051-.385.079a2.412,2.412,0,0,0-.692.262,1.859,1.859,0,0,0-.752.8A2.383,2.383,0,0,0,347,80.813l.014.053.027-.049a2.446,2.446,0,0,1,.513-.662.767.767,0,0,1,.115-.085,1.061,1.061,0,0,1,.545-.12,4.786,4.786,0,0,1,.527.041,4.352,4.352,0,0,0,.513.041,1.432,1.432,0,0,0,.268-.023,2.374,2.374,0,0,0,.739-.282,3.325,3.325,0,0,0,1.551-2.819,4.184,4.184,0,0,0-1.028-3.1l.043.009a6.611,6.611,0,0,0,1.483.218,2.856,2.856,0,0,0,.769-.1,2.36,2.36,0,0,0,1.518-1.418,2.118,2.118,0,0,0,.1-.882,1.031,1.031,0,0,0-.041-.171.654.654,0,0,1-.042-.193h-.022v0h-.022a2.282,2.282,0,0,1-.251.983,1.062,1.062,0,0,1-1.009.545,4.875,4.875,0,0,1-1.3-.261,6.8,6.8,0,0,0-.669-.173,5.068,5.068,0,0,0-1.213-.042,3.136,3.136,0,0,0,1.56-2.205,3.59,3.59,0,0,0-.968-2.551l-.014-.014-.017.014a2.217,2.217,0,0,0-.525,1.678,2.824,2.824,0,0,0,.175.77,2.144,2.144,0,0,1,.164.946,2.443,2.443,0,0,1-.473,1.026,3.9,3.9,0,0,1-.312.383,8.493,8.493,0,0,0-1.669.443,5.047,5.047,0,0,0-2.318,1.28,1.886,1.886,0,0,0,.086-.42,6.778,6.778,0,0,1,2.484-1.322,4.425,4.425,0,0,0,.885-.362,1.767,1.767,0,0,0,.6-.536,1.369,1.369,0,0,0,.206-.971,2.1,2.1,0,0,0-.395-.868,2.8,2.8,0,0,0-1.64-1.124.667.667,0,0,0-.421.07.475.475,0,0,0-.228.311c-.1.384.278.738.573.868a2.449,2.449,0,0,0,.762.136,3.249,3.249,0,0,1,.713.11,1.092,1.092,0,0,1,.106,1.249,2.317,2.317,0,0,1-1.275.744,7.44,7.44,0,0,0-2.389,1.21,1.893,1.893,0,0,0-.415-.858,1.989,1.989,0,0,0-1.494-.787,1.848,1.848,0,0,0-1.621,1.17,2.115,2.115,0,0,0-.171.828,2.371,2.371,0,0,1-.092.613v0l.021.006v0h0l.022.006a2.04,2.04,0,0,1,1.641-1.439,1.1,1.1,0,0,1,.842.426,1.6,1.6,0,0,1,.335.977,2.176,2.176,0,0,0-.5-.821,1.092,1.092,0,0,0-.778-.325,1.171,1.171,0,0,0-.144.009,1.2,1.2,0,0,0-.869.566,2.312,2.312,0,0,0,.193,2.275,6.845,6.845,0,0,0,.593.865l.005.005a3.6,3.6,0,0,1,.8,1.457,1.05,1.05,0,0,1-.553,1.2.653.653,0,0,1-.18.024.664.664,0,0,1-.574-.294.887.887,0,0,1-.073-.443,1.093,1.093,0,0,0-.05-.4.617.617,0,0,0-.5-.413.3.3,0,0,0-.067.007.358.358,0,0,0-.107.039.39.39,0,0,0-.167.39,1.817,1.817,0,0,0,1.566,1.5.976.976,0,0,0,.253-.033.957.957,0,0,0,.227-.095,1.32,1.32,0,0,0,.561-.771,10.914,10.914,0,0,0,.712,2.093,9.042,9.042,0,0,0,3.686,4.077,14.878,14.878,0,0,1-5.807-3.722A41.123,41.123,0,0,1,340,77.692l-.058-.075c-.766-.969-1.557-1.974-2.406-2.9a19.3,19.3,0,0,0-7.592-5.162,12.091,12.091,0,0,0-1.623-.48,2.3,2.3,0,0,1-.358-1.012c-.066-2.5-1.754-2.907-1.771-2.911l-.028-.006v.028c0,.131,0,.264,0,.4a4.413,4.413,0,0,0,.508,2.635,3.022,3.022,0,0,0,.66.691,15.592,15.592,0,0,0-2.273-.162,17.4,17.4,0,0,0-8.552,2.231,10.367,10.367,0,0,0-5.17,6.692,7.171,7.171,0,0,1-1.446.143,5.9,5.9,0,0,1-4.461-1.735,4.2,4.2,0,0,1-.4-4.707,3.461,3.461,0,0,1,1.085-.343,3.34,3.34,0,0,0,.987-.3c.371-.214.809-.74.622-1.238a.665.665,0,0,0-.661-.432.957.957,0,0,0-.258.036,2.848,2.848,0,0,0-1.435.989,5.617,5.617,0,0,0-1.381,3.114,4.183,4.183,0,0,0,1.006,3.272,6.7,6.7,0,0,0,4.869,1.952,7.369,7.369,0,0,0,1.363-.126,11.333,11.333,0,0,0,1.068,7.054,7.449,7.449,0,0,0,4.1,3.548,5.914,5.914,0,0,0,1.675.227,7.116,7.116,0,0,0,3.963-1.193,4.672,4.672,0,0,0,1-.984c.017.011.036.023.053.036s.061.04.091.058a7.861,7.861,0,0,0,.763.417c.109.053.215.1.327.147l.072.032.089.034c.034.014.07.028.11.041l.06.021c.051.017.1.035.154.049a7.071,7.071,0,0,0,1.679.276c.229.012.455.019.673.019.326,0,.651-.014.967-.042.151-.017.3-.039.418-.062s.265-.053.4-.091a5.61,5.61,0,0,0,2.14-1.1,4.452,4.452,0,0,0,1.015-1.195,3.617,3.617,0,0,0,.237-2.947,3.666,3.666,0,0,0-1.757-2.081,3.423,3.423,0,0,0-1.577-.391,3.062,3.062,0,0,0-.886.128,2.913,2.913,0,0,0-1.026.551,2.5,2.5,0,0,0-.668.876,2.559,2.559,0,0,0-.085,1.9,2.2,2.2,0,0,0,.988,1.219,1.938,1.938,0,0,0,.864.243,2.4,2.4,0,0,0,1.361-.34,2.136,2.136,0,0,0,.975-1.635.459.459,0,0,0-.391-.5.41.41,0,0,0-.049,0c-.292,0-.533.3-.614.576-.039.138-.078.293-.121.456-.051.2-.1.414-.166.615-.015.055-.125.114-.326.173a2.179,2.179,0,0,1-.425.072,1.4,1.4,0,0,1-.824-.165,1.629,1.629,0,0,1-.721-.9,1.977,1.977,0,0,1,.066-1.466,1.906,1.906,0,0,1,.513-.671,2.222,2.222,0,0,1,.816-.435,2.455,2.455,0,0,1,.723-.105,2.81,2.81,0,0,1,1.3.325,3.068,3.068,0,0,1,1.462,1.752,3.189,3.189,0,0,1,.158,1.234,2.863,2.863,0,0,1-.356,1.217,3.777,3.777,0,0,1-.885,1.027,4.719,4.719,0,0,1-1.214.731,4.552,4.552,0,0,1-.689.235c-.115.033-.235.056-.357.08s-.229.037-.358.051a11.168,11.168,0,0,1-1.549.015,6.655,6.655,0,0,1-1.53-.255c-.028-.008-.056-.017-.083-.027s-.061-.021-.092-.029l-.1-.041-.083-.034-.071-.031c-.09-.04-.194-.085-.287-.133a6.822,6.822,0,0,1-.7-.384c-.037-.023-.073-.046-.109-.071l-.033-.021a5.771,5.771,0,0,0,.574-2.108,3.82,3.82,0,0,0-.571-2.6.887.887,0,0,0-.68-.373.708.708,0,0,0-.383.115,1.25,1.25,0,0,0-.272,1.49,3.615,3.615,0,0,0,.667.916,5.169,5.169,0,0,1,.61.78,3.808,3.808,0,0,1-.431,1.433,5.989,5.989,0,0,1-1.563-1.878,7.212,7.212,0,0,1-.785-3.207,8.93,8.93,0,0,1,.125-1.69,9.233,9.233,0,0,1,.467-1.641,6.23,6.23,0,0,1,.812-1.475,6.764,6.764,0,0,1,1.19-1.2,7.6,7.6,0,0,1,1.455-.883,8.29,8.29,0,0,1,1.617-.547,8.66,8.66,0,0,1,3.379-.083,8.027,8.027,0,0,1,1.615.446c.128.049.251.1.371.156l.008,0c.072.031.153.072.231.111.051.026.1.05.147.072.1.056.2.11.291.162.148.08.3.163.445.253.232.141.466.288.694.44a4.912,4.912,0,0,0-2.552.341l-.007.006a1.6,1.6,0,0,1-1.128.472c-.045,0-.09,0-.136-.006v0l0,.045v0l0-.02,0,.02h0a1.332,1.332,0,0,1,.4.25,1.863,1.863,0,0,0,.484.307,2.136,2.136,0,0,0,.591.081,4.9,4.9,0,0,0,1.4-.282c.213-.064.433-.132.65-.182a12.755,12.755,0,0,1,1.389-.249c.376.291.658.52.915.743,1.136.979,2.179,2.03,3.188,3.047.488.493.949.959,1.423,1.418a24.943,24.943,0,0,0,2.279,1.983,21.031,21.031,0,0,0,2.346,1.578,15.445,15.445,0,0,0,4.6,1.809,11,11,0,0,0,2.271.241,9.7,9.7,0,0,0,1.547-.121,5.487,5.487,0,0,0,.994-.262,3.325,3.325,0,0,0,.6-.154,5.673,5.673,0,0,0,3.823-3.708A4.98,4.98,0,0,0,358.568,80.073ZM353.8,80.03a.294.294,0,0,1-.128-.028c-.086-.044-.078-.092-.058-.133a1.578,1.578,0,0,1,.834-.6c-.03.066-.055.133-.079.2l0,.006a1.375,1.375,0,0,1-.207.407A.548.548,0,0,1,353.8,80.03Zm-18.224-4.195a19.552,19.552,0,0,0-2.516-1.818c-.163-.1-.338-.2-.507-.29-.088-.048-.176-.1-.263-.146-.054-.025-.1-.051-.15-.075-.082-.041-.16-.08-.252-.122l-.069-.032c-.117-.05-.237-.1-.354-.149a8.626,8.626,0,0,0-1.756-.486,9.383,9.383,0,0,0-3.656.1,9.021,9.021,0,0,0-1.756.6,8.422,8.422,0,0,0-1.588.973,7.369,7.369,0,0,0-1.316,1.332,7.14,7.14,0,0,0-.9,1.641,9.821,9.821,0,0,0-.5,1.774,9.311,9.311,0,0,0-.126,1.826,7.915,7.915,0,0,0,.873,3.5,6.647,6.647,0,0,0,1.8,2.121,3.844,3.844,0,0,1-.851.849,6.492,6.492,0,0,1-3.613,1.091,5.387,5.387,0,0,1-1.521-.208,6.835,6.835,0,0,1-3.756-3.272,10.93,10.93,0,0,1-.989-6.761c.006-.051.015-.1.024-.146l.085-.024c.025-.007.049-.012.074-.02a13.245,13.245,0,0,0,4.871-3.23l.014-.011a15.845,15.845,0,0,1,3.824-2.8,13.986,13.986,0,0,1,5.8-1.285,14.581,14.581,0,0,1,5.843,1.254,16.841,16.841,0,0,1,4.754,3.092c.835.914,1.618,1.907,2.375,2.868l.072.093a41.636,41.636,0,0,0,3.112,3.663,14.811,14.811,0,0,0,8.314,4.416l.036,0c.145.022.3.044.46.066a10.934,10.934,0,0,1-2.139-.293,13.406,13.406,0,0,1-2.15-.709,17.537,17.537,0,0,1-2.245-1.144,24.041,24.041,0,0,1-4.465-3.51c-.465-.453-.921-.916-1.4-1.406-1.014-1.027-2.062-2.09-3.228-3.1-.067-.058-.134-.114-.2-.17l.007-.009S335.624,75.864,335.575,75.835Zm-2.987-4.35a15.141,15.141,0,0,0-6.077-1.305,14.579,14.579,0,0,0-6.046,1.338,16.314,16.314,0,0,0-3.984,2.911,13.063,13.063,0,0,1-4.506,3.056,9.885,9.885,0,0,1,4.831-6.018,16.766,16.766,0,0,1,8.249-2.157,13.4,13.4,0,0,1,4.684.788,19.252,19.252,0,0,1,3.121,1.508C332.767,71.563,332.677,71.523,332.588,71.485Zm11.667,5.833a7.223,7.223,0,0,0-.59-.856l-.006-.008a6.31,6.31,0,0,1-.552-.805,1.963,1.963,0,0,1-.2-1.885.81.81,0,0,1,.586-.382.657.657,0,0,1,.09-.006.727.727,0,0,1,.51.214,2.518,2.518,0,0,1,.564,1.921,4.653,4.653,0,0,1-.176.658l0,.008a3.605,3.605,0,0,0-.192.837l0,.024c-.009.045-.017.088-.025.136l0,.031C344.25,77.218,344.251,77.257,344.255,77.318Zm6.583.7a2.487,2.487,0,0,1-.947,1.074,1.757,1.757,0,0,1-.516.2.657.657,0,0,1-.121.009,4.085,4.085,0,0,1-.432-.037,5.129,5.129,0,0,0-.611-.047,2.2,2.2,0,0,0-.41.036,1.123,1.123,0,0,1,.363-.328,1.677,1.677,0,0,1,.481-.179c.127-.027.253-.054.38-.078a5.139,5.139,0,0,0,1.6-.512A2.478,2.478,0,0,0,350.838,78.016Zm-3.111-9.121a.233.233,0,0,1,.114-.024.454.454,0,0,1,.052,0,2.182,2.182,0,0,1,1.055.634c-.078-.009-.157-.015-.233-.021l-.079-.006a2.138,2.138,0,0,1-.606-.1c-.185-.079-.383-.286-.35-.415A.1.1,0,0,1,347.727,68.895Zm-5.195,10.038a1.383,1.383,0,0,1-.373-.691.135.135,0,0,1,.032-.122.2.2,0,0,1,.026-.008h.014c.077,0,.194.115.24.237a1.483,1.483,0,0,1,.055.421c0,.025,0,.05,0,.075S342.53,78.9,342.532,78.933Zm-35.469-9.386c.149,0,.175.074.185.1.065.17-.166.482-.4.618a3.072,3.072,0,0,1-.838.244c-.133.027-.259.052-.387.083a2.922,2.922,0,0,1,1.318-1.032A.476.476,0,0,1,307.063,69.547Zm22.969,13.375h.011c.085.01.094.119.094.164a1.925,1.925,0,0,1-.561,1.116.719.719,0,0,1-.109.088c.049-.166.093-.34.136-.508l.021-.084c.039-.151.079-.305.116-.441C329.784,83.105,329.923,82.922,330.032,82.922Z" fill="#8e8e8f"/>
      </g>
    </g>
  </g>
</svg>
