<svg xmlns="http://www.w3.org/2000/svg" width="286" height="164.677" viewBox="0 0 286 164.677">
  <g id="Group_124" data-name="Group 124" transform="translate(0 -12.662)">
    <g id="Group_116" data-name="Group 116">
      <path id="Path_2232" data-name="Path 2232" d="M39.989,112.858l-2.245,6.8H34.857L42.234,98.04H45.57l7.377,21.618H49.964l-2.309-6.8Zm7.12-2.18-2.148-6.223c-.482-1.411-.8-2.694-1.123-3.945h-.064c-.321,1.251-.641,2.6-1.09,3.913l-2.118,6.255Z" fill="#8e8e8f"/>
      <path id="Path_2233" data-name="Path 2233" d="M58.012,98.04v12.83c0,4.811,2.148,6.863,5.035,6.863,3.176,0,5.26-2.116,5.26-6.863V98.04H71.13v12.638c0,6.638-3.5,9.333-8.18,9.333-4.426,0-7.762-2.5-7.762-9.238V98.04Z" fill="#8e8e8f"/>
      <path id="Path_2234" data-name="Path 2234" d="M75.615,116.259a9.463,9.463,0,0,0,4.972,1.411c2.854,0,4.522-1.508,4.522-3.689,0-1.989-1.155-3.175-4.074-4.266-3.527-1.282-5.709-3.143-5.709-6.158,0-3.368,2.791-5.869,6.992-5.869a9.676,9.676,0,0,1,4.747,1.058l-.769,2.277A8,8,0,0,0,82.223,100c-2.952,0-4.074,1.764-4.074,3.239,0,2.021,1.315,3.015,4.3,4.17,3.656,1.411,5.485,3.175,5.485,6.351,0,3.335-2.438,6.254-7.537,6.254a11.174,11.174,0,0,1-5.518-1.411Z" fill="#8e8e8f"/>
      <path id="Path_2235" data-name="Path 2235" d="M91.424,116.259a9.462,9.462,0,0,0,4.971,1.411c2.855,0,4.523-1.508,4.523-3.689,0-1.989-1.155-3.175-4.074-4.266-3.528-1.282-5.709-3.143-5.709-6.158,0-3.368,2.791-5.869,6.992-5.869a9.679,9.679,0,0,1,4.747,1.058l-.77,2.277A8,8,0,0,0,98.031,100c-2.951,0-4.073,1.764-4.073,3.239,0,2.021,1.314,3.015,4.3,4.17,3.656,1.411,5.484,3.175,5.484,6.351,0,3.335-2.437,6.254-7.537,6.254a11.17,11.17,0,0,1-5.517-1.411Z" fill="#8e8e8f"/>
      <path id="Path_2236" data-name="Path 2236" d="M110.377,98.04v21.618h-2.823V98.04Z" fill="#8e8e8f"/>
      <path id="Path_2237" data-name="Path 2237" d="M126.412,109.523h-8.371v7.793h9.365v2.342H115.218V98.04h11.707v2.342h-8.884v6.832h8.371Z" fill="#8e8e8f"/>
      <path id="Path_2238" data-name="Path 2238" d="M137.824,98.3a32.308,32.308,0,0,1,5.357-.417c2.759,0,4.778.641,6.062,1.8a5.922,5.922,0,0,1,1.892,4.522,6.367,6.367,0,0,1-1.668,4.619,9.007,9.007,0,0,1-6.607,2.373,9.622,9.622,0,0,1-2.245-.192v8.66h-2.791Zm2.791,10.424a9.38,9.38,0,0,0,2.309.224c3.367,0,5.42-1.668,5.42-4.586,0-2.886-2.053-4.266-5.1-4.266a11.733,11.733,0,0,0-2.63.224Z" fill="#8e8e8f"/>
      <path id="Path_2239" data-name="Path 2239" d="M154.883,98.329a32.449,32.449,0,0,1,5.358-.449c2.982,0,4.939.577,6.254,1.764a5.522,5.522,0,0,1,1.7,4.137,5.676,5.676,0,0,1-4.041,5.486v.1c1.637.577,2.631,2.118,3.144,4.363a34.362,34.362,0,0,0,1.668,5.933h-2.886a27.086,27.086,0,0,1-1.413-5.164c-.64-2.982-1.828-4.105-4.361-4.2h-2.631v9.365h-2.791Zm2.791,9.847h2.856c2.982,0,4.875-1.636,4.875-4.106,0-2.79-2.022-4.01-4.973-4.01a12.25,12.25,0,0,0-2.758.225Z" fill="#8e8e8f"/>
      <path id="Path_2240" data-name="Path 2240" d="M183.3,109.523h-8.371v7.793h9.365v2.342H172.1V98.04h11.707v2.342h-8.885v6.832H183.3Z" fill="#8e8e8f"/>
      <path id="Path_2241" data-name="Path 2241" d="M206.131,110.164c-.16-3.015-.353-6.671-.353-9.333h-.065c-.769,2.5-1.634,5.228-2.724,8.211L199.17,119.53h-2.115l-3.529-10.3c-1.026-3.079-1.86-5.838-2.469-8.4h-.064c-.065,2.694-.225,6.286-.418,9.558L190,119.658h-2.663l1.508-21.618H192.4l3.689,10.456c.9,2.662,1.6,5.036,2.182,7.281h.062c.579-2.18,1.348-4.554,2.311-7.281l3.848-10.456h3.56l1.348,21.618h-2.758Z" fill="#8e8e8f"/>
      <path id="Path_2242" data-name="Path 2242" d="M216.485,98.04v21.618h-2.822V98.04Z" fill="#8e8e8f"/>
      <path id="Path_2243" data-name="Path 2243" d="M232.52,109.523h-8.371v7.793h9.365v2.342H221.327V98.04h11.707v2.342h-8.885v6.832h8.371Z" fill="#8e8e8f"/>
      <path id="Path_2244" data-name="Path 2244" d="M237.135,98.329a32.4,32.4,0,0,1,5.356-.449c2.982,0,4.939.577,6.256,1.764a5.53,5.53,0,0,1,1.7,4.137,5.679,5.679,0,0,1-4.041,5.486v.1c1.635.577,2.629,2.118,3.142,4.363a34.362,34.362,0,0,0,1.668,5.933h-2.886a27.086,27.086,0,0,1-1.413-5.164c-.64-2.982-1.828-4.105-4.361-4.2h-2.629v9.365h-2.791Zm2.791,9.847h2.854c2.982,0,4.875-1.636,4.875-4.106,0-2.79-2.02-4.01-4.971-4.01a12.237,12.237,0,0,0-2.758.225Z" fill="#8e8e8f"/>
    </g>
    <g id="Group_123" data-name="Group 123">
      <g id="Group_117" data-name="Group 117">
        <path id="Path_2245" data-name="Path 2245" d="M44.229,128.89l84.541-1.473v2.949Z" fill="#8e8e8f"/>
        <path id="Path_2246" data-name="Path 2246" d="M241.772,128.89l-84.543,1.477v-2.949Z" fill="#8e8e8f"/>
      </g>
      <g id="Group_118" data-name="Group 118">
        <path id="Path_2247" data-name="Path 2247" d="M161.7,157.825a6.4,6.4,0,0,0-3.3.973,12.031,12.031,0,0,1-4.158.8,6.666,6.666,0,0,1-4.594-1.6,19.337,19.337,0,0,0-1.477-3.592,17.612,17.612,0,0,0-1.019-1.611l-.217-.316a15.789,15.789,0,0,0-3.9-5.559l-.033-.029-.033.029a15.717,15.717,0,0,0-3.9,5.549l-.248.363a16.844,16.844,0,0,0-.993,1.574,19.316,19.316,0,0,0-1.476,3.588,6.652,6.652,0,0,1-4.594,1.606,12.005,12.005,0,0,1-4.152-.8,6.431,6.431,0,0,0-3.306-.975,5.415,5.415,0,0,0-3.131.979l-.036.029.025.037c1.866,2.834,4.151,4.27,6.792,4.27,3.353,0,6.454-2.3,8.071-3.748a12.659,12.659,0,0,0-.237,2.339,23.043,23.043,0,0,0,.178,2.471c.2,1.859.411,3.783-.457,5.525a4.921,4.921,0,0,1-4.636,2.68,6.9,6.9,0,0,1-1.3-.123l-.01.049v-.051l-.018.1.01,0a2.84,2.84,0,0,1,.974.547,3.282,3.282,0,0,0,1.216.658,4.456,4.456,0,0,0,.824.078,8.49,8.49,0,0,0,5.784-2.939c2.338-2.715,2.146-6.284,1.75-9.706-.007-.058-.014-.117-.02-.175a16.532,16.532,0,0,0,2.466,3.1c-.668,3.8-1.784,10.278-1.784,11.151a2.241,2.241,0,0,0,4.481,0c0-.993-1.473-9.4-1.782-11.151a16.4,16.4,0,0,0,2.467-3.107c-.008.06-.013.119-.019.179-.383,3.27-.6,6.983,1.75,9.706a8.462,8.462,0,0,0,5.779,2.939,4.482,4.482,0,0,0,.828-.078,3.278,3.278,0,0,0,1.217-.658,2.79,2.79,0,0,1,.969-.547l-.01-.047.006,0,.013.047v0l0,0-.019-.1-.012,0a6.841,6.841,0,0,1-1.3.123,4.925,4.925,0,0,1-4.634-2.68c-.868-1.744-.659-3.669-.455-5.533a23.461,23.461,0,0,0,.179-2.463,12.429,12.429,0,0,0-.238-2.339c1.617,1.445,4.719,3.748,8.072,3.748,2.643,0,4.926-1.436,6.787-4.27l.026-.037-.035-.029A5.4,5.4,0,0,0,161.7,157.825Zm-2.576,2.4.093-.054a4.875,4.875,0,0,1,2.483-.748,3.684,3.684,0,0,1,.656.055,5.705,5.705,0,0,1-4.3,2.06,7.07,7.07,0,0,1-2.346-.43,13.961,13.961,0,0,0,3.321-.837Zm-34.827-.8a4.893,4.893,0,0,1,2.485.748l.1.058.1.043a13.613,13.613,0,0,0,3.315.836,7.142,7.142,0,0,1-2.342.43,5.7,5.7,0,0,1-4.3-2.06A3.631,3.631,0,0,1,124.3,159.425Zm11.9,11.584a5.837,5.837,0,0,0,.422-.725c1.032-2.07.791-4.267.578-6.207l0-.025a22.033,22.033,0,0,1-.17-2.321,13.892,13.892,0,0,1,1.389-5.707c.041,1.641.227,3.262.423,4.977l.019.166c.368,3.144.558,6.408-1.457,8.744A7.5,7.5,0,0,1,136.2,171.009Zm6.8-9.479a8.023,8.023,0,0,1,.007-11.8c.978,1.174,2.57,3.461,2.57,5.9A9.773,9.773,0,0,1,143,161.53Zm6.8,9.483a7.542,7.542,0,0,1-1.2-1.1c-2.016-2.334-1.826-5.607-1.459-8.76l.018-.154c.2-1.711.382-3.332.423-4.973a13.959,13.959,0,0,1,1.391,5.707,22.3,22.3,0,0,1-.17,2.321l0,.023c-.213,1.942-.453,4.139.578,6.207A6.1,6.1,0,0,0,149.8,171.013Zm6.627,1.271.016.049h-.006l-.01-.045Z" fill="#8e8e8f"/>
        <path id="Path_2248" data-name="Path 2248" d="M180.084,147.753a21.1,21.1,0,0,0-4.328-6.787,23.317,23.317,0,0,0-8.736-5.651,19.631,19.631,0,0,0-6.205-2.166,14.252,14.252,0,0,0-2.315-.179c-4.789,0-11.316,2.162-14.443,6.91v-6.041a3.308,3.308,0,1,0-2.115,0v6.041c-3.126-4.748-9.654-6.91-14.443-6.91a14.257,14.257,0,0,0-2.314.179,19.606,19.606,0,0,0-6.2,2.162,23.334,23.334,0,0,0-8.74,5.655,21.1,21.1,0,0,0-4.327,6.787,21.9,21.9,0,0,0-1.6,8.092l0,.035.033.012a4.6,4.6,0,0,0,1.379.214c2.316,0,4.7-1.744,7.292-5.333a20.635,20.635,0,0,0,2.674-5.993,21.971,21.971,0,0,1,2.346-5.494,26.678,26.678,0,0,1,2.607-3.348,18.321,18.321,0,0,1,4.756-1.5,12.248,12.248,0,0,1,2.026-.158l.119,0c-2.355,1.516-7.161,5.736-4.61,13.84l.1-.027a11.843,11.843,0,0,1,1.031-1.635,16.374,16.374,0,0,0,1.453-2.338,20.954,20.954,0,0,0,.707-3.742c.276-2.186.536-4.25,1.984-6.08,5.532.269,12.017,3.293,13.733,8.556v2.508c-3.121.686-4.18,3.4-5.2,6.027l-.011.028a15.145,15.145,0,0,1-1.737,3.568,4.694,4.694,0,0,1-3.539,1.981,4.3,4.3,0,0,1-2.828-.932,3.411,3.411,0,0,1-.385-1.273,5.092,5.092,0,0,1,.486-2.178l.066-.168a3.69,3.69,0,0,0,.359-1.527,1.59,1.59,0,0,0-1.436-1.59.888.888,0,0,0-.106,0c-.894,0-1.683,1.015-1.8,2.314a5.739,5.739,0,0,0,.486,3.053,4.864,4.864,0,0,0,.447.709,3.469,3.469,0,0,0,.557.586,5.334,5.334,0,0,0,3.964,1.867c.075,0,.15,0,.225,0a5.547,5.547,0,0,0,4.18-2.326,16.073,16.073,0,0,0,1.861-3.793c.956-2.465,1.86-4.793,4.41-5.459l2.115.006v-.006c2.551.666,3.455,2.994,4.412,5.461a16.092,16.092,0,0,0,1.86,3.789,5.539,5.539,0,0,0,4.175,2.328c.077,0,.151,0,.227,0a5.325,5.325,0,0,0,3.957-1.861,3.366,3.366,0,0,0,.566-.592,4.625,4.625,0,0,0,.448-.709,5.788,5.788,0,0,0,.482-3.053c-.113-1.3-.9-2.314-1.8-2.314a.8.8,0,0,0-.1,0,1.6,1.6,0,0,0-1.438,1.59,3.674,3.674,0,0,0,.359,1.527l.067.168a5.181,5.181,0,0,1,.48,2.178,3.249,3.249,0,0,1-.384,1.273,4.3,4.3,0,0,1-2.829.932,4.7,4.7,0,0,1-3.535-1.981,15.3,15.3,0,0,1-1.75-3.6c-1.025-2.626-2.084-5.343-5.2-6.027v-2.508c1.717-5.263,8.2-8.287,13.734-8.556,1.448,1.83,1.708,3.894,1.983,6.08a20.871,20.871,0,0,0,.709,3.742,16.221,16.221,0,0,0,1.451,2.338,12.1,12.1,0,0,1,1.033,1.633l.1.029c2.551-8.1-2.256-12.324-4.609-13.84l.119,0a12.491,12.491,0,0,1,2.025.156,18.28,18.28,0,0,1,4.752,1.5,27.248,27.248,0,0,1,2.611,3.348,22.1,22.1,0,0,1,2.344,5.492,20.694,20.694,0,0,0,2.672,5.995c2.6,3.589,4.982,5.333,7.295,5.333a4.593,4.593,0,0,0,1.379-.214l.035-.012v-.035A21.866,21.866,0,0,0,180.084,147.753Zm-52.694,7.068a4.277,4.277,0,0,1-.337-.548,4.847,4.847,0,0,1-.391-2.588c.079-.907.562-1.537.946-1.537a.119.119,0,0,1,.032,0,.758.758,0,0,1,.661.784,3.1,3.1,0,0,1-.3,1.181l-.068.166a5.909,5.909,0,0,0-.541,2.533Zm31-4.673c.387,0,.873.658.947,1.538a4.824,4.824,0,0,1-.388,2.588,3.789,3.789,0,0,1-.336.543v0a5.925,5.925,0,0,0-.541-2.535l-.069-.164a3.17,3.17,0,0,1-.3-1.181.756.756,0,0,1,.668-.786Z" fill="#8e8e8f"/>
      </g>
      <g id="Group_120" data-name="Group 120">
        <g id="Group_119" data-name="Group 119">
          <path id="Path_2249" data-name="Path 2249" d="M0,86.943l122.4-1.611v3.227Z" fill="#8e8e8f"/>
          <path id="Path_2250" data-name="Path 2250" d="M286,86.943,163.6,88.558V85.331Z" fill="#8e8e8f"/>
        </g>
        <path id="Path_2251" data-name="Path 2251" d="M147.381,81.539l-3.666,7.7-3.67-7.7,3.67-7.7Z" fill="#8e8e8f"/>
      </g>
      <g id="Group_122" data-name="Group 122">
        <g id="Group_121" data-name="Group 121">
          <path id="Path_2252" data-name="Path 2252" d="M141.339,32.042h3.322a10.241,10.241,0,0,0,2.754-12.9,32.619,32.619,0,0,0-2.977-4.088A24.612,24.612,0,0,1,143,12.662a23.871,23.871,0,0,1-1.442,2.388,33.1,33.1,0,0,0-2.973,4.088A10.236,10.236,0,0,0,141.339,32.042Z" fill="#8e8e8f"/>
          <path id="Path_2253" data-name="Path 2253" d="M156.522,31.662a2.072,2.072,0,0,0-2.045-1.131c-4.039-.119-5.424,3.627-5.73,4.691a10.51,10.51,0,0,0-11.531-.127c-.377-1.2-1.8-4.676-5.693-4.564a2.085,2.085,0,0,0-2.049,1.131,1.987,1.987,0,0,0,.6,2.468c.962.555,2.158-.052,3.193.116a3.672,3.672,0,0,1,2.408,1.546l.115.284a13.229,13.229,0,0,0-2.023,1.943s8.492-.277,8.492,20.949l.738.772.738-.772c0-21.226,8.493-20.949,8.493-20.949a21.1,21.1,0,0,0-2.078-1.826l.17-.4a3.668,3.668,0,0,1,2.4-1.546c1.033-.168,2.234.439,3.195-.116A1.991,1.991,0,0,0,156.522,31.662Z" fill="#8e8e8f"/>
        </g>
        <path id="Path_2254" data-name="Path 2254" d="M267.11,46.451a12.5,12.5,0,0,0-3.07-6.924,6.323,6.323,0,0,0-3.2-2.2,1.993,1.993,0,0,0-.572-.082,1.486,1.486,0,0,0-1.469.962c-.42,1.1.553,2.274,1.379,2.753a7.357,7.357,0,0,0,2.2.675,7.647,7.647,0,0,1,2.414.763c1.848,3.666,1.5,7.775-.89,10.473-2.174,2.452-5.791,3.858-9.926,3.858a16.1,16.1,0,0,1-3.219-.316c-1.611-7.677-7.14-12.334-11.5-14.89a38.744,38.744,0,0,0-19.027-4.962,35.089,35.089,0,0,0-5.061.358,6.71,6.71,0,0,0,1.471-1.536c1.188-1.752,1.16-3.842,1.135-5.863,0-.3-.008-.589-.008-.88v-.062l-.061.013c-.037.009-3.792.911-3.941,6.474a5.144,5.144,0,0,1-.793,2.254,26.766,26.766,0,0,0-3.609,1.067,42.927,42.927,0,0,0-16.893,11.484c-1.945,2.131-3.744,4.419-5.482,6.63a91.86,91.86,0,0,1-6.865,8.08,33.088,33.088,0,0,1-12.918,8.28,20.08,20.08,0,0,0,8.2-9.07,24.141,24.141,0,0,0,1.586-4.655,2.9,2.9,0,0,0,1.248,1.712,1.878,1.878,0,0,0,.5.212,2.094,2.094,0,0,0,.566.076,4.043,4.043,0,0,0,3.48-3.344.859.859,0,0,0-.375-.869.884.884,0,0,0-.234-.087.839.839,0,0,0-.15-.015,1.373,1.373,0,0,0-1.106.919,2.478,2.478,0,0,0-.109.9,1.951,1.951,0,0,1-.164.983,1.482,1.482,0,0,1-1.281.655,1.5,1.5,0,0,1-.4-.052c-.969-.266-1.426-1.625-1.23-2.678a7.918,7.918,0,0,1,1.783-3.252,14.847,14.847,0,0,0,1.32-1.924c.754-1.391,1.44-3.4.43-5.062a2.638,2.638,0,0,0-2.258-1.278,2.44,2.44,0,0,0-1.732.723,4.969,4.969,0,0,0-1.106,1.824,3.706,3.706,0,0,1,.744-2.171,2.445,2.445,0,0,1,1.875-.948c1.6,0,3.143,1.661,3.654,3.2v.005l.047-.018,0,0,0,0,.047-.017a5.542,5.542,0,0,1-.207-1.368,4.7,4.7,0,0,0-.379-1.84,4.112,4.112,0,0,0-3.609-2.6,4.423,4.423,0,0,0-3.322,1.752,4.207,4.207,0,0,0-.92,1.91,16.52,16.52,0,0,0-5.317-2.695,5.156,5.156,0,0,1-2.838-1.653,2.425,2.425,0,0,1,.239-2.778,7.137,7.137,0,0,1,1.584-.245,5.556,5.556,0,0,0,1.7-.3c.656-.288,1.486-1.078,1.273-1.93a1.1,1.1,0,0,0-.507-.695,1.5,1.5,0,0,0-.942-.154,6.215,6.215,0,0,0-3.642,2.5,4.568,4.568,0,0,0-.879,1.932,3.01,3.01,0,0,0,.459,2.159,3.935,3.935,0,0,0,1.322,1.192,9.836,9.836,0,0,0,1.973.8,15.142,15.142,0,0,1,5.527,2.943,4.19,4.19,0,0,0,.189.936A11.219,11.219,0,0,0,169.1,45.64a18.941,18.941,0,0,0-3.715-.988,8.091,8.091,0,0,1-.695-.852,5.33,5.33,0,0,1-1.045-2.284A4.673,4.673,0,0,1,164,39.408,6.377,6.377,0,0,0,164.4,37.7a4.949,4.949,0,0,0-1.17-3.735l-.035-.032-.035.034c-.024.027-2.494,2.605-2.153,5.675.207,1.85,1.372,3.5,3.467,4.9a11.165,11.165,0,0,0-2.695.095,13.975,13.975,0,0,0-1.486.384,10.89,10.89,0,0,1-2.891.579,2.365,2.365,0,0,1-2.246-1.212,5.056,5.056,0,0,1-.555-2.187h-.049l.049-.008-.1,0v.006a1.519,1.519,0,0,1-.092.422,2.078,2.078,0,0,0-.094.39,4.728,4.728,0,0,0,.217,1.962,5.247,5.247,0,0,0,3.381,3.155,6.267,6.267,0,0,0,1.709.219,14.855,14.855,0,0,0,3.3-.483l.1-.024a9.3,9.3,0,0,0-2.285,6.9c.234,2.977,1.393,5.087,3.443,6.274a5.316,5.316,0,0,0,1.649.625,3.047,3.047,0,0,0,.6.052,10.349,10.349,0,0,0,1.142-.09,10.2,10.2,0,0,1,1.17-.093,2.35,2.35,0,0,1,1.213.268,1.511,1.511,0,0,1,.256.188,5.375,5.375,0,0,1,1.142,1.475l.061.108.031-.12a5.317,5.317,0,0,0-.1-3.839,4.126,4.126,0,0,0-1.674-1.787,5.28,5.28,0,0,0-1.537-.582c-.289-.064-.577-.12-.86-.177a10.093,10.093,0,0,1-3.08-.952,4.161,4.161,0,0,1-1.8-2.155c-.015-.038-.033-.084-.052-.137a4.727,4.727,0,0,0,2.9,1.643c.125.017.4.02.754.023,1.092.012,3.125.032,3.234.571l.1-.019v0a4.334,4.334,0,0,0-2.893-3.1,5.141,5.141,0,0,0-1.689-.217c-.994-.021-1.934-.04-2.533-.887a1.989,1.989,0,0,1-.246-.5,8.824,8.824,0,0,1,2.709-3.891c.406-.1.773-.2,1.144-.27l.166-.034a23.3,23.3,0,0,1,3.412-.516h.028a9.781,9.781,0,0,1,6.537,6.071,10.985,10.985,0,0,1,.39,1.2,14.333,14.333,0,0,1,.338,1.549,22.986,22.986,0,0,1-2.064,8.026,18.923,18.923,0,0,1-12.588,10.63,29.889,29.889,0,0,1-4.234.39,8.506,8.506,0,0,1-2.9-.419c-4.086-1.517-6.668-3.941-7.675-7.206a9.668,9.668,0,0,1-.262-4.718c1.283-4.558,4.508-5.05,5.836-5.05a4.2,4.2,0,0,1,.638.042l.108.007a4.986,4.986,0,0,1,4.976,4.984c0,1.249-.23,2.924-1.334,3.814a4.04,4.04,0,0,1-2.539.852,4.116,4.116,0,0,1-2.507-.818,3.36,3.36,0,0,1-.3-5.093,2.253,2.253,0,0,1,1.148-.524,2.394,2.394,0,0,1,.389-.033,1.353,1.353,0,0,1,.793.216,1.513,1.513,0,0,1,.474.712c.039.094.08.19.125.28a1.723,1.723,0,0,0,1.545.921,1.328,1.328,0,0,0,.619-.148.927.927,0,0,0,.457-1.274c-.677-1.368-2.511-1.991-3.927-1.991a4.241,4.241,0,0,0-.94.1,3.672,3.672,0,0,0-1.535.756,4.64,4.64,0,0,0-1.453,3.9,4.553,4.553,0,0,0,1.811,3.21,5.441,5.441,0,0,0,3.3,1.094,5.338,5.338,0,0,0,3.35-1.146c1.51-1.213,1.826-3.295,1.826-4.828a6.3,6.3,0,0,0-6.227-6.284,5.513,5.513,0,0,0-.853-.064c-1.254,0-5.469.435-7.041,6.031a10.883,10.883,0,0,0,.23,5.231c.743,2.6,2.821,6.135,8.508,8.248a7.165,7.165,0,0,0,1.317.342,12.433,12.433,0,0,0,2.224.585,21.7,21.7,0,0,0,3.44.268,24.431,24.431,0,0,0,5.052-.535A34.312,34.312,0,0,0,176.7,71.906a46.388,46.388,0,0,0,5.216-3.511,55.884,55.884,0,0,0,5.075-4.41c1.052-1.025,2.08-2.06,3.168-3.156,2.242-2.262,4.56-4.6,7.089-6.778.573-.495,1.2-1.006,2.036-1.654a28.287,28.287,0,0,1,3.086.554c.482.113.972.261,1.445.406a10.93,10.93,0,0,0,3.123.626,4.792,4.792,0,0,0,1.314-.178,4.252,4.252,0,0,0,1.075-.683,2.986,2.986,0,0,1,.882-.557h0l0-.05h0l0,.05-.008-.1h0c-.1.009-.2.013-.3.013a3.546,3.546,0,0,1-2.51-1.051l-.02-.013a10.916,10.916,0,0,0-5.677-.756c.533-.354,1.041-.676,1.547-.982.33-.206.677-.4,1.015-.579.207-.112.416-.225.617-.342.1-.048.213-.1.327-.16.175-.087.355-.178.519-.247l.018-.009c.265-.117.541-.239.826-.347a17.942,17.942,0,0,1,3.59-.994,19.327,19.327,0,0,1,7.519.185,18.616,18.616,0,0,1,3.6,1.215,16.739,16.739,0,0,1,3.232,1.967,15.088,15.088,0,0,1,2.653,2.673,13.931,13.931,0,0,1,1.8,3.283A19.767,19.767,0,0,1,230,59.969a19.088,19.088,0,0,1,.276,3.762,16.045,16.045,0,0,1-1.74,7.136,13.28,13.28,0,0,1-3.483,4.177,8.5,8.5,0,0,1-.953-3.189,11.477,11.477,0,0,1,1.354-1.732,8.148,8.148,0,0,0,1.484-2.04c.4-.965.486-2.632-.6-3.315a1.574,1.574,0,0,0-.853-.256,1.946,1.946,0,0,0-1.512.828c-1.492,1.933-1.389,4.7-1.275,5.793a12.856,12.856,0,0,0,1.281,4.689c-.043.028-.086.055-.127.083-.064.042-.127.084-.189.123a15.98,15.98,0,0,1-1.557.854c-.219.114-.463.22-.68.313l-.117.051-.137.055c-.1.039-.191.079-.277.11-.068.019-.133.042-.2.064s-.129.043-.2.063a14.789,14.789,0,0,1-3.4.568,24.944,24.944,0,0,1-3.443-.035c-.287-.032-.533-.067-.8-.115s-.539-.1-.8-.177a10.145,10.145,0,0,1-1.531-.521,10.433,10.433,0,0,1-2.7-1.628,8.375,8.375,0,0,1-1.965-2.284,6.374,6.374,0,0,1-.8-2.71,7.19,7.19,0,0,1,.357-2.742,6.818,6.818,0,0,1,3.252-3.9,6.226,6.226,0,0,1,2.9-.725,5.516,5.516,0,0,1,1.607.232,5,5,0,0,1,1.813.971,4.221,4.221,0,0,1,1.14,1.49,4.373,4.373,0,0,1,.145,3.262,3.6,3.6,0,0,1-1.6,2,3.127,3.127,0,0,1-1.834.367,4.889,4.889,0,0,1-.947-.162c-.445-.132-.69-.262-.725-.385-.138-.453-.259-.93-.377-1.392-.09-.355-.173-.689-.261-.99a1.647,1.647,0,0,0-1.366-1.282,1.087,1.087,0,0,0-.111,0,1.028,1.028,0,0,0-.867,1.123,4.754,4.754,0,0,0,2.172,3.638,5.332,5.332,0,0,0,2.748.764c.092,0,.185,0,.279-.007a4.385,4.385,0,0,0,1.922-.541,4.91,4.91,0,0,0,2.2-2.711,5.738,5.738,0,0,0-.187-4.229,5.635,5.635,0,0,0-1.489-1.949,6.456,6.456,0,0,0-2.287-1.225,6.771,6.771,0,0,0-1.967-.285,7.67,7.67,0,0,0-3.511.868,8.153,8.153,0,0,0-3.906,4.632,8.04,8.04,0,0,0,.527,6.557,9.836,9.836,0,0,0,2.258,2.656,12.554,12.554,0,0,0,4.756,2.44c.312.086.628.15.9.2s.592.1.932.137c.711.063,1.412.092,2.146.092.486,0,.99-.014,1.5-.041a15.78,15.78,0,0,0,3.732-.613c.118-.031.237-.072.352-.111l.129-.044c.09-.032.17-.064.25-.1.062-.026.123-.05.191-.074l.229-.1c.224-.1.437-.19.658-.3a18.507,18.507,0,0,0,1.7-.926c.069-.043.139-.089.209-.137l.11-.073a10.554,10.554,0,0,0,2.224,2.189,15.825,15.825,0,0,0,8.815,2.655,13.2,13.2,0,0,0,3.728-.506c3.506-1.035,6.916-3.985,9.123-7.892,2.35-4.155,3.215-9.87,2.377-15.693a16.493,16.493,0,0,0,3.032.281c4.246,0,8.5-1.7,10.834-4.343A9.336,9.336,0,0,0,267.11,46.451ZM259.858,38.6c.029-.074.09-.228.412-.228a.969.969,0,0,1,.271.038,6.425,6.425,0,0,1,2.93,2.294c-.232-.054-.467-.1-.693-.152l-.17-.036a6.706,6.706,0,0,1-1.858-.539C260.229,39.678,259.715,38.984,259.858,38.6ZM231.776,63.768a20.529,20.529,0,0,0-.281-4.062,21.3,21.3,0,0,0-1.106-3.946,15.635,15.635,0,0,0-2-3.652,16.293,16.293,0,0,0-2.926-2.964,18.606,18.606,0,0,0-3.531-2.163,19.932,19.932,0,0,0-3.91-1.331,20.908,20.908,0,0,0-8.133-.224,19.393,19.393,0,0,0-3.9,1.083c-.285.11-.576.239-.856.364l-.086.038c-.205.093-.379.18-.56.273l-.336.168c-.186.1-.375.208-.563.31-.382.208-.779.422-1.15.656a43.972,43.972,0,0,0-5.588,4.041c-.117.071-.18.115-.18.115l.014.02-.045.037c-.137.113-.271.225-.4.341-2.586,2.236-4.912,4.591-7.16,6.87-1.084,1.1-2.108,2.135-3.151,3.152A53.523,53.523,0,0,1,176,70.7,39.737,39.737,0,0,1,171,73.245a29.573,29.573,0,0,1-4.785,1.577,24.247,24.247,0,0,1-4.758.653c.36-.05.7-.1,1.024-.146l.076-.012a32.938,32.938,0,0,0,18.494-9.823,92.261,92.261,0,0,0,6.879-8.089l.082-.1c1.721-2.188,3.5-4.451,5.41-6.545A37.5,37.5,0,0,1,204,43.879a32.424,32.424,0,0,1,13-2.793,31.116,31.116,0,0,1,12.913,2.86c3.142,1.425,5.869,3.866,8.507,6.228l.03.027c3.244,2.913,6.6,5.925,10.838,7.184l.154.043c.066.018.133.036.2.056.006.044.014.088.022.132.011.063.023.128.033.194.83,5.5.006,11.127-2.2,15.04-2.04,3.619-5.163,6.34-8.354,7.279a11.956,11.956,0,0,1-3.383.461,14.455,14.455,0,0,1-8.045-2.426,8.609,8.609,0,0,1-1.888-1.887,14.8,14.8,0,0,0,4.005-4.721A17.485,17.485,0,0,0,231.776,63.768Zm7.541-14.536c-2.717-2.438-5.526-4.957-8.867-6.472A32.413,32.413,0,0,0,217,39.783a33.7,33.7,0,0,0-13.523,2.9c-.207.09-.408.18-.6.268a43.017,43.017,0,0,1,6.942-3.355,29.852,29.852,0,0,1,10.424-1.754,37.305,37.305,0,0,1,18.351,4.8c3.971,2.323,9.049,6.529,10.748,13.39C245.532,54.807,242.514,52.1,239.317,49.232Zm-61.781,6.105c-.016-.1-.036-.2-.055-.3l-.01-.054a7.848,7.848,0,0,0-.428-1.862l-.005-.018a10.42,10.42,0,0,1-.389-1.463A5.6,5.6,0,0,1,177.9,47.37a1.591,1.591,0,0,1,1.135-.476,1.54,1.54,0,0,1,.2.013,1.8,1.8,0,0,1,1.3.849c.8,1.311.2,3.006-.452,4.2a14.129,14.129,0,0,1-1.195,1.742l-.053.069a15.663,15.663,0,0,0-1.308,1.9c.01-.143.012-.228.012-.252Zm3.826,3.918c.006-.079.008-.158.012-.236l.005-.127a3.23,3.23,0,0,1,.12-.937c.1-.271.361-.527.535-.527l.033,0a.448.448,0,0,1,.047.013c.07.044.088.178.08.276A3.1,3.1,0,0,1,181.362,59.255ZM169.551,36.873a.511.511,0,0,1,.256.054.226.226,0,0,1,.1.151c.07.286-.37.746-.78.922a4.692,4.692,0,0,1-1.347.229l-.176.014c-.17.013-.344.026-.518.045a4.827,4.827,0,0,1,2.346-1.409A.886.886,0,0,1,169.551,36.873Zm-6.672,20.34c.157.113.315.213.475.306a11.484,11.484,0,0,0,3.566,1.139c.276.054.561.113.844.173a3.756,3.756,0,0,1,1.068.4,2.5,2.5,0,0,1,.809.729,4.909,4.909,0,0,0-.914-.079,11.676,11.676,0,0,0-1.357.1,8.677,8.677,0,0,1-.965.083,1.471,1.471,0,0,1-.266-.02,3.825,3.825,0,0,1-1.146-.441A5.524,5.524,0,0,1,162.879,57.213Zm-6.3,4.422a.594.594,0,0,1-.278.063,1.242,1.242,0,0,1-.806-.346,3.093,3.093,0,0,1-.455-.905c-.067-.173-.125-.32-.184-.452a3.508,3.508,0,0,1,1.857,1.344C156.756,61.43,156.774,61.537,156.577,61.635Zm53.851,9.539a1.766,1.766,0,0,1-.246-.2,4.3,4.3,0,0,1-1.244-2.48c0-.128.027-.346.205-.367h.027c.239,0,.555.41.647.745.068.236.137.5.209.78l.1.389C210.221,70.419,210.319,70.805,210.428,71.174Zm-.217-18.659h0l0-.041Z" fill="#8e8e8f"/>
        <path id="Path_2255" data-name="Path 2255" d="M140.31,61.792c-1.572-5.6-5.788-6.031-7.042-6.031a5.343,5.343,0,0,0-.845.064,6.3,6.3,0,0,0-6.234,6.284c0,1.533.317,3.615,1.827,4.828a5.335,5.335,0,0,0,3.349,1.146,5.443,5.443,0,0,0,3.3-1.094,4.56,4.56,0,0,0,1.811-3.21,4.649,4.649,0,0,0-1.454-3.9,3.692,3.692,0,0,0-1.537-.756,4.234,4.234,0,0,0-.94-.1c-1.414,0-3.246.623-3.924,1.992a.926.926,0,0,0,.453,1.273,1.343,1.343,0,0,0,.623.148,1.723,1.723,0,0,0,1.544-.92c.043-.088.082-.181.12-.27a1.513,1.513,0,0,1,.48-.723,1.352,1.352,0,0,1,.792-.216,2.368,2.368,0,0,1,.386.033,2.227,2.227,0,0,1,1.148.524,3.35,3.35,0,0,1-.3,5.093,4.1,4.1,0,0,1-2.5.818,4.038,4.038,0,0,1-2.538-.852c-1.106-.892-1.339-2.567-1.339-3.814a4.987,4.987,0,0,1,4.981-4.984l.107-.007a4.111,4.111,0,0,1,.635-.042c1.327,0,4.553.492,5.836,5.048.08.337,1.85,8.293-7.938,11.926a8.467,8.467,0,0,1-2.9.419,29.993,29.993,0,0,1-4.227-.388A18.922,18.922,0,0,1,111.393,63.45a22.974,22.974,0,0,1-2.065-8.017,15,15,0,0,1,.334-1.56,11.894,11.894,0,0,1,.391-1.2,9.784,9.784,0,0,1,6.54-6.071h.029a23.327,23.327,0,0,1,3.411.516l.166.034c.383.076.773.175,1.139.27a8.787,8.787,0,0,1,2.71,3.891,1.966,1.966,0,0,1-.242.5c-.6.848-1.541.867-2.536.888a5.116,5.116,0,0,0-1.686.217,4.344,4.344,0,0,0-2.9,3.1v0l.1.019c.113-.539,2.145-.559,3.237-.571.352,0,.63-.006.756-.023a4.719,4.719,0,0,0,2.9-1.649c-.02.056-.037.1-.052.143a4.174,4.174,0,0,1-1.8,2.155,10.105,10.105,0,0,1-3.082.952c-.284.057-.57.113-.858.177a5.278,5.278,0,0,0-1.537.582,4.117,4.117,0,0,0-1.674,1.786,5.305,5.305,0,0,0-.1,3.84l.032.12.06-.108a5.414,5.414,0,0,1,1.142-1.475,1.732,1.732,0,0,1,.254-.188,2.359,2.359,0,0,1,1.214-.268,10.216,10.216,0,0,1,1.17.093,10.328,10.328,0,0,0,1.143.09,3.065,3.065,0,0,0,.6-.052,5.328,5.328,0,0,0,1.645-.625c2.048-1.184,3.208-3.294,3.447-6.274a9.293,9.293,0,0,0-2.286-6.9l.1.024a14.9,14.9,0,0,0,3.3.483,6.277,6.277,0,0,0,1.709-.219,5.255,5.255,0,0,0,3.379-3.155,4.711,4.711,0,0,0,.217-1.962,2.125,2.125,0,0,0-.092-.381,1.521,1.521,0,0,1-.092-.428h-.049v0H131.4a5.047,5.047,0,0,1-.559,2.185A2.36,2.36,0,0,1,128.6,45.6a10.868,10.868,0,0,1-2.888-.579,13.939,13.939,0,0,0-1.488-.384,11.028,11.028,0,0,0-2.7-.094c2.1-1.407,3.262-3.056,3.469-4.906.342-3.07-2.127-5.647-2.153-5.674l-.033-.034-.036.032a4.944,4.944,0,0,0-1.17,3.735A6.3,6.3,0,0,0,122,39.412a4.791,4.791,0,0,1,.362,2.1,5.432,5.432,0,0,1-1.053,2.284,9.055,9.055,0,0,1-.692.852,18.707,18.707,0,0,0-3.714.986,11.235,11.235,0,0,0-5.157,2.847,4.087,4.087,0,0,0,.191-.934,15.113,15.113,0,0,1,5.527-2.943,9.734,9.734,0,0,0,1.968-.8,3.918,3.918,0,0,0,1.328-1.192,3.038,3.038,0,0,0,.458-2.159,4.65,4.65,0,0,0-.878-1.932,6.239,6.239,0,0,0-3.648-2.5,1.486,1.486,0,0,0-.937.155,1.068,1.068,0,0,0-.507.694c-.213.852.617,1.642,1.274,1.93a5.542,5.542,0,0,0,1.7.3,7.155,7.155,0,0,1,1.586.245,2.427,2.427,0,0,1,.235,2.778,5.133,5.133,0,0,1-2.835,1.653,16.535,16.535,0,0,0-5.316,2.695,4.193,4.193,0,0,0-.923-1.91,4.424,4.424,0,0,0-3.323-1.752,4.109,4.109,0,0,0-3.606,2.6,4.678,4.678,0,0,0-.38,1.843,5.38,5.38,0,0,1-.206,1.365v0l.048.013v0l.048.013c.511-1.539,2.052-3.2,3.651-3.2a2.44,2.44,0,0,1,1.874.949,3.559,3.559,0,0,1,.744,2.172,4.821,4.821,0,0,0-1.106-1.825,2.423,2.423,0,0,0-1.731-.724,2.63,2.63,0,0,0-2.254,1.278c-1.014,1.67-.326,3.675.429,5.062a14.749,14.749,0,0,0,1.32,1.924l.009.012a7.938,7.938,0,0,1,1.773,3.24c.2,1.053-.26,2.412-1.229,2.678a1.509,1.509,0,0,1-.4.052,1.481,1.481,0,0,1-1.279-.655,1.961,1.961,0,0,1-.163-.983,2.457,2.457,0,0,0-.11-.9,1.372,1.372,0,0,0-1.106-.919.879.879,0,0,0-.152.015.938.938,0,0,0-.237.088.864.864,0,0,0-.371.868,4.044,4.044,0,0,0,3.481,3.344,2.121,2.121,0,0,0,.565-.075,2,2,0,0,0,.506-.213A2.924,2.924,0,0,0,109,59.131a24.092,24.092,0,0,0,1.586,4.657,20.082,20.082,0,0,0,8.2,9.07,33.076,33.076,0,0,1-12.917-8.28,90.871,90.871,0,0,1-6.862-8.08l-.132-.167c-1.7-2.16-3.46-4.392-5.351-6.463A42.941,42.941,0,0,0,76.637,38.384a27.067,27.067,0,0,0-3.61-1.067,5.169,5.169,0,0,1-.8-2.252c-.145-5.565-3.9-6.467-3.938-6.476l-.061-.013v.062c0,.292,0,.586-.007.882-.026,2.021-.053,4.109,1.131,5.861a6.7,6.7,0,0,0,1.47,1.536,35.037,35.037,0,0,0-5.058-.358,38.726,38.726,0,0,0-19.026,4.962c-4.358,2.556-9.888,7.213-11.5,14.89a16.076,16.076,0,0,1-3.218.316c-4.133,0-7.751-1.406-9.924-3.858-2.39-2.7-2.739-6.807-.892-10.473a7.672,7.672,0,0,1,2.411-.764,7.319,7.319,0,0,0,2.2-.674c.825-.476,1.8-1.646,1.383-2.753a1.48,1.48,0,0,0-1.47-.962,2.027,2.027,0,0,0-.574.082,6.327,6.327,0,0,0-3.193,2.2,12.51,12.51,0,0,0-3.074,6.926,9.334,9.334,0,0,0,2.238,7.281c2.331,2.639,6.583,4.343,10.834,4.343a16.493,16.493,0,0,0,3.032-.281c-.842,5.817.023,11.534,2.378,15.693,2.206,3.907,5.615,6.857,9.121,7.892a13.162,13.162,0,0,0,3.726.506,15.825,15.825,0,0,0,8.817-2.655,10.358,10.358,0,0,0,2.221-2.189c.041.026.081.052.12.08.068.045.135.089.2.13a18.376,18.376,0,0,0,1.7.926c.243.119.478.221.727.328l.162.071c.067.024.131.049.2.076s.155.061.243.093c.044.013.089.029.135.044.114.04.231.08.344.11a15.754,15.754,0,0,0,3.734.613c.508.027,1.012.041,1.5.041.725,0,1.448-.03,2.15-.092.336-.038.667-.087.931-.137.285-.056.589-.118.894-.2a12.2,12.2,0,0,0,1.719-.591,11.919,11.919,0,0,0,3.042-1.85,9.923,9.923,0,0,0,2.258-2.656,8.044,8.044,0,0,0,.527-6.557,8.157,8.157,0,0,0-3.909-4.631,7.64,7.64,0,0,0-3.508-.869,6.8,6.8,0,0,0-1.97.285,6.442,6.442,0,0,0-2.284,1.225,5.588,5.588,0,0,0-1.486,1.949,5.707,5.707,0,0,0-.19,4.229,4.894,4.894,0,0,0,2.2,2.711,4.351,4.351,0,0,0,1.922.541,5.36,5.36,0,0,0,3.028-.757,4.758,4.758,0,0,0,2.171-3.638,1.028,1.028,0,0,0-.872-1.123,1.012,1.012,0,0,0-.11,0c-.648,0-1.185.66-1.362,1.282-.09.308-.177.652-.27,1.015-.115.453-.235.922-.369,1.368-.035.122-.279.252-.727.386a5,5,0,0,1-.945.16,3.118,3.118,0,0,1-1.833-.367,3.61,3.61,0,0,1-1.6-2,4.4,4.4,0,0,1,.145-3.261A4.2,4.2,0,0,1,71,64.475a4.985,4.985,0,0,1,1.816-.971,5.521,5.521,0,0,1,1.607-.232,6.233,6.233,0,0,1,2.9.725,6.825,6.825,0,0,1,3.252,3.9,7.123,7.123,0,0,1,.352,2.743,6.371,6.371,0,0,1-.794,2.708,8.386,8.386,0,0,1-1.966,2.286,10.587,10.587,0,0,1-2.7,1.627,10.456,10.456,0,0,1-1.533.522c-.258.073-.524.125-.795.176s-.509.083-.8.115a24.975,24.975,0,0,1-3.445.035,14.789,14.789,0,0,1-3.4-.568c-.064-.019-.124-.04-.185-.061s-.135-.046-.2-.065l-.231-.091c-.062-.026-.126-.051-.185-.074l-.156-.069c-.2-.089-.432-.189-.639-.3a15.586,15.586,0,0,1-1.558-.855c-.082-.05-.162-.1-.243-.157l-.071-.047a12.88,12.88,0,0,0,1.277-4.69c.116-1.1.223-3.856-1.271-5.793a1.974,1.974,0,0,0-1.514-.828,1.571,1.571,0,0,0-.852.256c-1.088.684-1.009,2.351-.6,3.315a8.077,8.077,0,0,0,1.484,2.039A11.373,11.373,0,0,1,61.9,71.855a8.5,8.5,0,0,1-.957,3.189,13.308,13.308,0,0,1-3.478-4.177,16.029,16.029,0,0,1-1.744-7.136A19.526,19.526,0,0,1,56,59.97a20.2,20.2,0,0,1,1.039-3.649,13.805,13.805,0,0,1,1.805-3.283,15,15,0,0,1,2.648-2.673A16.9,16.9,0,0,1,64.725,48.4a18.5,18.5,0,0,1,3.6-1.216A19.3,19.3,0,0,1,75.841,47a17.97,17.97,0,0,1,3.591.994c.285.108.559.23.825.347l.019.009c.159.069.339.158.513.245.114.058.227.113.328.16.215.124.436.245.65.362.326.177.665.362.987.562.516.313,1.035.642,1.544.981a10.917,10.917,0,0,0-5.676.756l-.018.013a3.552,3.552,0,0,1-2.51,1.051c-.1,0-.2,0-.3-.013l0,.048,0-.048-.008.1,0-.019v.019l0-.044,0,.044h0a2.974,2.974,0,0,1,.882.557,4.255,4.255,0,0,0,1.076.683,4.788,4.788,0,0,0,1.315.178,10.9,10.9,0,0,0,3.117-.626c.473-.144.963-.293,1.447-.406a28.747,28.747,0,0,1,3.089-.554c.835.648,1.463,1.159,2.036,1.654,2.526,2.178,4.846,4.517,7.09,6.779,1.087,1.095,2.114,2.131,3.168,3.154a55.449,55.449,0,0,0,5.069,4.411,46.907,46.907,0,0,0,5.221,3.511,34.317,34.317,0,0,0,10.242,4.025,24.455,24.455,0,0,0,5.053.535,21.719,21.719,0,0,0,3.441-.268,12.288,12.288,0,0,0,2.212-.582,7.372,7.372,0,0,0,1.328-.345c5.679-2.11,7.761-5.65,8.507-8.248A11.093,11.093,0,0,0,140.31,61.792ZM129.7,61.7a.6.6,0,0,1-.282-.064c-.193-.1-.174-.2-.131-.294a3.511,3.511,0,0,1,1.855-1.345c-.064.147-.121.294-.176.438l0,.013a3.015,3.015,0,0,1-.459.906A1.216,1.216,0,0,1,129.7,61.7ZM89.158,52.364a43.508,43.508,0,0,0-5.6-4.045c-.362-.23-.751-.441-1.126-.645-.2-.106-.392-.213-.587-.323-.119-.058-.227-.113-.332-.167-.184-.093-.356-.18-.561-.273l-.156-.069c-.258-.114-.527-.232-.785-.333a19.526,19.526,0,0,0-3.906-1.082,20.841,20.841,0,0,0-8.135.223,19.915,19.915,0,0,0-3.9,1.332,18.514,18.514,0,0,0-3.533,2.162,16.486,16.486,0,0,0-2.929,2.965,15.837,15.837,0,0,0-2,3.651A21.75,21.75,0,0,0,54.5,59.706a21.061,21.061,0,0,0-.28,4.062,17.6,17.6,0,0,0,1.943,7.788,14.837,14.837,0,0,0,4.01,4.721,8.61,8.61,0,0,1-1.894,1.887,14.431,14.431,0,0,1-8.04,2.426,11.949,11.949,0,0,1-3.382-.461c-3.192-.938-6.315-3.66-8.356-7.279-2.208-3.908-3.03-9.53-2.2-15.042.013-.111.033-.215.055-.324.062-.019.125-.036.187-.053s.11-.029.164-.046c4.251-1.261,7.6-4.272,10.838-7.184l.03-.027c2.637-2.362,5.365-4.8,8.511-6.228A31.1,31.1,0,0,1,69,41.086a32.421,32.421,0,0,1,13,2.793,37.441,37.441,0,0,1,10.574,6.877c1.859,2.035,3.6,4.244,5.284,6.382l.162.2a91.97,91.97,0,0,0,6.924,8.151,32.961,32.961,0,0,0,18.493,9.823l.081.012c.321.046.666.1,1.025.146a24.236,24.236,0,0,1-4.76-.653A29.525,29.525,0,0,1,115,73.245,39.189,39.189,0,0,1,110,70.7a53.578,53.578,0,0,1-9.932-7.808c-1.034-1.009-2.05-2.038-3.125-3.128-2.255-2.286-4.587-4.65-7.181-6.893-.148-.128-.3-.252-.448-.377l.014-.021S89.269,52.43,89.158,52.364Zm-6.643-9.676A33.666,33.666,0,0,0,69,39.783a32.431,32.431,0,0,0-13.45,2.977c-3.337,1.515-6.146,4.034-8.866,6.476-3.194,2.864-6.211,5.571-10.024,6.8,1.7-6.861,6.777-11.067,10.747-13.39a37.306,37.306,0,0,1,18.352-4.8A29.821,29.821,0,0,1,76.175,39.6a42.829,42.829,0,0,1,6.943,3.355Q82.809,42.815,82.515,42.688ZM108.47,55.664a16.077,16.077,0,0,0-1.313-1.9l-.013-.017a14.586,14.586,0,0,1-1.229-1.79c-.646-1.193-1.25-2.888-.456-4.2a1.816,1.816,0,0,1,1.3-.849,1.477,1.477,0,0,1,.2-.013,1.621,1.621,0,0,1,1.137.476,5.609,5.609,0,0,1,1.254,4.274,10.616,10.616,0,0,1-.39,1.464l-.006.017a8.066,8.066,0,0,0-.431,1.862l-.007.054c-.019.1-.038.2-.054.3l0,.072C108.46,55.44,108.462,55.528,108.47,55.664Zm14.646,1.552a5.529,5.529,0,0,1-2.109,2.389,3.831,3.831,0,0,1-1.146.441,1.512,1.512,0,0,1-.268.02,8.645,8.645,0,0,1-.963-.083,11.659,11.659,0,0,0-1.358-.1,4.916,4.916,0,0,0-.914.079,2.517,2.517,0,0,1,.807-.729,3.743,3.743,0,0,1,1.07-.4c.284-.06.565-.119.845-.173a11.447,11.447,0,0,0,3.561-1.138A5.383,5.383,0,0,0,123.116,57.216Zm-6.923-20.289a.5.5,0,0,1,.254-.054.877.877,0,0,1,.115.006,4.816,4.816,0,0,1,2.347,1.409c-.174-.019-.347-.032-.516-.045l-.176-.014A4.707,4.707,0,0,1,116.868,38c-.412-.177-.853-.637-.779-.923A.2.2,0,0,1,116.193,36.927ZM104.635,59.256a3.087,3.087,0,0,1-.829-1.536c-.014-.1.009-.233.072-.271a.225.225,0,0,1,.057-.018.166.166,0,0,1,.032,0c.173,0,.432.256.534.528a3.217,3.217,0,0,1,.12.936c0,.056,0,.111.006.167S104.631,59.19,104.635,59.256ZM25.729,38.375c.332,0,.389.166.411.23.145.378-.368,1.071-.89,1.375a6.787,6.787,0,0,1-1.864.541c-.3.061-.576.119-.862.186a6.5,6.5,0,0,1,2.933-2.294A1,1,0,0,1,25.729,38.375Zm51.1,29.756h.026c.189.022.209.264.209.366a4.278,4.278,0,0,1-1.248,2.482,1.486,1.486,0,0,1-.241.2c.108-.369.206-.755.3-1.129l.047-.186c.085-.338.174-.678.258-.983C76.275,68.539,76.586,68.131,76.826,68.131Z" fill="#8e8e8f"/>
      </g>
    </g>
  </g>
</svg>
