<svg id="Icon-Cart_1" data-name="Icon-Cart – 1" xmlns="http://www.w3.org/2000/svg" width="48" height="48" viewBox="0 0 48 48">
  <g id="Group_52" data-name="Group 52" transform="translate(-124 -220)">
    <rect id="Rectangle_118" data-name="Rectangle 118" width="48" height="48" transform="translate(124 220)" fill="none"/>
  </g>
  <path id="Union_16" data-name="Union 16" d="M-336-7848.7l2-25.046h3.19a7.948,7.948,0,0,1,2.154-3.914A7.947,7.947,0,0,1-323-7880a7.948,7.948,0,0,1,5.658,2.344,7.948,7.948,0,0,1,2.154,3.914H-312l2,25.046Zm19.1-25.046a6.358,6.358,0,0,0-6.1-4.6,6.3,6.3,0,0,0-4.485,1.859,6.312,6.312,0,0,0-1.618,2.743Z" transform="translate(347 7888.001)" fill="#848383"/>
</svg>
