<svg id="Icon-Login_1" data-name="Icon-Login – 1" xmlns="http://www.w3.org/2000/svg" width="48" height="48" viewBox="0 0 48 48">
  <g id="Group_52" data-name="Group 52" transform="translate(-124 -220)">
    <rect id="Rectangle_118" data-name="Rectangle 118" width="48" height="48" transform="translate(124 220)" fill="none"/>
  </g>
  <path id="Union_20" data-name="Union 20" d="M-334.2-7845.837h-.025a1.938,1.938,0,0,1-1.737-1.894,1.534,1.534,0,0,1,.018-.236h-.015a15.639,15.639,0,0,1,1.592-5.225,16.168,16.168,0,0,1,3.324-4.426,16.508,16.508,0,0,1,5.718-3.524,10.249,10.249,0,0,1-1.782-1.433,10.171,10.171,0,0,1-2.971-7.218,10.169,10.169,0,0,1,2.971-7.217,10.054,10.054,0,0,1,7.175-2.991,10.054,10.054,0,0,1,7.175,2.991,10.169,10.169,0,0,1,2.971,7.217,10.171,10.171,0,0,1-2.971,7.218,10.239,10.239,0,0,1-1.542,1.276,16.515,16.515,0,0,1,6.6,4.092,16.155,16.155,0,0,1,3.169,4.538,15.673,15.673,0,0,1,1.41,5.277h-.018v.01a1.391,1.391,0,0,1-1.47,1.544Zm5.53-9.378a12.591,12.591,0,0,0-3.578,5.977H-306.9a13.1,13.1,0,0,0-12.448-9.562l-.238,0A13.163,13.163,0,0,0-328.668-7855.215Zm1.537-14.577a7.232,7.232,0,0,0,7.2,7.245,7.232,7.232,0,0,0,7.2-7.245,7.233,7.233,0,0,0-7.2-7.245A7.233,7.233,0,0,0-327.131-7869.792Z" transform="translate(344 7887)" fill="#848383"/>
</svg>
