<svg xmlns="http://www.w3.org/2000/svg" width="48" height="48" viewBox="0 0 48 48">
  <g id="Group_51" data-name="Group 51" transform="translate(-124 -220)">
    <rect id="Rectangle_118" data-name="Rectangle 118" width="48" height="48" transform="translate(124 220)" fill="none"/>
    <path id="Union_14" data-name="Union 14" d="M-302.52-7845.825l-9.192-7.713a1.99,1.99,0,0,1-.565-.771A14.389,14.389,0,0,1-321.5-7851a14.4,14.4,0,0,1-10.254-4.246A14.4,14.4,0,0,1-336-7865.5a14.4,14.4,0,0,1,4.246-10.252A14.4,14.4,0,0,1-321.5-7880a14.4,14.4,0,0,1,10.252,4.248A14.4,14.4,0,0,1-307-7865.5a14.392,14.392,0,0,1-2.776,8.538,2,2,0,0,1,.635.359l9.192,7.714a2,2,0,0,1,.247,2.818,2,2,0,0,1-1.533.713A1.993,1.993,0,0,1-302.52-7845.825Zm-27.111-27.805A11.422,11.422,0,0,0-333-7865.5a11.423,11.423,0,0,0,3.368,8.132A11.424,11.424,0,0,0-321.5-7854a11.423,11.423,0,0,0,8.13-3.368A11.417,11.417,0,0,0-310-7865.5a11.514,11.514,0,0,0-11.5-11.5A11.418,11.418,0,0,0-329.632-7873.63Z" transform="translate(466 8107)" fill="#848383"/>
  </g>
</svg>
